<svg width="999" height="567" viewBox="0 0 999 567" fill="none" xmlns="http://www.w3.org/2000/svg">
<path d="M545.98 156.45C543.88 156.45 542.07 155.98 540.55 155.04C539.03 154.1 537.87 152.78 537.07 151.08C536.29 149.38 535.9 147.42 535.9 145.2C535.9 142.98 536.29 141.02 537.07 139.32C537.87 137.62 539.03 136.3 540.55 135.36C542.07 134.42 543.88 133.95 545.98 133.95C548.1 133.95 549.91 134.42 551.41 135.36C552.93 136.3 554.08 137.62 554.86 139.32C555.66 141 556.06 142.96 556.06 145.2C556.06 147.44 555.66 149.41 554.86 151.11C554.08 152.79 552.93 154.1 551.41 155.04C549.91 155.98 548.1 156.45 545.98 156.45ZM545.98 153.9C548.34 153.92 550.14 153.14 551.38 151.56C552.62 149.98 553.24 147.86 553.24 145.2C553.24 142.54 552.62 140.43 551.38 138.87C550.14 137.31 548.34 136.52 545.98 136.5C543.64 136.48 541.85 137.26 540.61 138.84C539.39 140.4 538.77 142.52 538.75 145.2C538.73 147.86 539.34 149.97 540.58 151.53C541.82 153.09 543.62 153.88 545.98 153.9ZM566.543 139.35C568.003 139.35 569.283 139.72 570.383 140.46C571.483 141.2 572.323 142.22 572.903 143.52C573.483 144.8 573.773 146.25 573.773 147.87C573.773 149.49 573.473 150.95 572.873 152.25C572.293 153.55 571.453 154.58 570.353 155.34C569.273 156.08 567.993 156.45 566.513 156.45C564.573 156.45 562.983 155.8 561.743 154.5V163.2H559.073V139.8H561.443V141.6C562.683 140.1 564.383 139.35 566.543 139.35ZM566.183 153.99C567.723 153.99 568.903 153.42 569.723 152.28C570.543 151.14 570.953 149.67 570.953 147.87C570.953 146.07 570.543 144.61 569.723 143.49C568.903 142.35 567.703 141.78 566.123 141.78C564.583 141.78 563.413 142.33 562.613 143.43C561.833 144.53 561.443 146.01 561.443 147.87C561.443 149.73 561.833 151.22 562.613 152.34C563.413 153.44 564.603 153.99 566.183 153.99ZM577.061 139.8H588.311V142.32H579.731V156H577.061V139.8ZM603.075 142.5C603.435 143.32 603.615 144.48 603.615 145.98V156H601.245V153.45C599.945 155.45 597.945 156.45 595.245 156.45C594.085 156.45 593.085 156.24 592.245 155.82C591.405 155.38 590.775 154.79 590.355 154.05C589.935 153.31 589.725 152.5 589.725 151.62C589.725 149.22 591.055 147.63 593.715 146.85C595.075 146.49 597.125 146.14 599.865 145.8L600.975 145.65C600.935 144.33 600.605 143.37 599.985 142.77C599.365 142.15 598.365 141.84 596.985 141.84C595.965 141.84 595.095 142.07 594.375 142.53C593.655 142.99 593.155 143.7 592.875 144.66L590.325 143.91C590.725 142.45 591.485 141.33 592.605 140.55C593.745 139.75 595.215 139.35 597.015 139.35C598.515 139.35 599.785 139.62 600.825 140.16C601.865 140.68 602.615 141.46 603.075 142.5ZM595.635 154.2C597.015 154.2 598.145 153.85 599.025 153.15C599.925 152.43 600.475 151.54 600.675 150.48C600.855 149.9 600.945 149.04 600.945 147.9C600.365 147.98 599.895 148.05 599.535 148.11C598.675 148.23 597.825 148.36 596.985 148.5C596.145 148.62 595.455 148.76 594.915 148.92C593.235 149.44 592.395 150.33 592.395 151.59C592.395 152.33 592.665 152.95 593.205 153.45C593.745 153.95 594.555 154.2 595.635 154.2ZM607.53 139.8H610.2V146.61H618.72V139.8H621.39V156H618.72V149.16H610.2V156H607.53V139.8ZM638.837 156H636.257V144.06L627.767 156H625.577V139.8H628.157V151.56L636.647 139.8H638.837V156ZM653.028 147.51C653.688 147.87 654.188 148.4 654.528 149.1C654.888 149.78 655.068 150.54 655.068 151.38C655.068 152.42 654.788 153.32 654.228 154.08C653.688 154.84 652.948 155.43 652.008 155.85C651.068 156.25 650.018 156.45 648.857 156.45C647.278 156.45 645.868 156.11 644.628 155.43C643.388 154.73 642.408 153.76 641.688 152.52L643.818 151.14C645.018 152.98 646.658 153.9 648.738 153.9C649.838 153.9 650.708 153.65 651.348 153.15C652.008 152.65 652.338 151.97 652.338 151.11C652.338 150.21 652.008 149.59 651.348 149.25C650.688 148.91 649.688 148.74 648.348 148.74H646.668V146.52H648.318C650.698 146.52 651.888 145.77 651.888 144.27C651.888 143.49 651.588 142.9 650.988 142.5C650.408 142.08 649.668 141.87 648.768 141.87C647.908 141.87 647.058 142.05 646.218 142.41C645.378 142.77 644.658 143.25 644.058 143.85L642.438 142.02C643.278 141.16 644.248 140.5 645.347 140.04C646.448 139.58 647.638 139.35 648.918 139.35C650.538 139.35 651.888 139.77 652.968 140.61C654.068 141.45 654.618 142.6 654.618 144.06C654.618 145.46 654.088 146.61 653.028 147.51ZM665.26 156.45C663.68 156.45 662.3 156.09 661.12 155.37C659.94 154.65 659.03 153.64 658.39 152.34C657.77 151.04 657.46 149.55 657.46 147.87C657.46 146.19 657.78 144.71 658.42 143.43C659.06 142.13 659.97 141.13 661.15 140.43C662.33 139.71 663.7 139.35 665.26 139.35C666.86 139.35 668.25 139.71 669.43 140.43C670.61 141.15 671.51 142.16 672.13 143.46C672.77 144.74 673.09 146.21 673.09 147.87C673.09 149.57 672.77 151.07 672.13 152.37C671.49 153.65 670.58 154.65 669.4 155.37C668.22 156.09 666.84 156.45 665.26 156.45ZM665.26 153.9C666.9 153.9 668.14 153.36 668.98 152.28C669.82 151.18 670.24 149.71 670.24 147.87C670.24 146.01 669.81 144.55 668.95 143.49C668.11 142.41 666.88 141.87 665.26 141.87C663.62 141.87 662.38 142.41 661.54 143.49C660.72 144.57 660.31 146.03 660.31 147.87C660.31 149.75 660.73 151.23 661.57 152.31C662.43 153.37 663.66 153.9 665.26 153.9ZM683.277 139.8C684.277 139.8 685.147 139.9 685.887 140.1C686.787 140.34 687.507 140.83 688.047 141.57C688.607 142.29 688.887 143.17 688.887 144.21C688.887 145.39 688.537 146.31 687.837 146.97C687.497 147.31 687.147 147.54 686.787 147.66C687.127 147.72 687.487 147.86 687.867 148.08C689.087 148.78 689.697 149.93 689.697 151.53C689.697 152.61 689.427 153.51 688.887 154.23C688.367 154.95 687.637 155.45 686.697 155.73C686.037 155.91 685.157 156 684.057 156H676.377V139.8H683.277ZM683.097 146.79C683.817 146.79 684.377 146.71 684.777 146.55C685.217 146.39 685.547 146.12 685.767 145.74C686.007 145.34 686.127 144.9 686.127 144.42C686.127 143.9 685.997 143.44 685.737 143.04C685.497 142.64 685.147 142.37 684.687 142.23C684.247 142.07 683.637 141.99 682.857 141.99H679.077V146.79H683.097ZM683.907 153.81C684.507 153.81 685.017 153.74 685.437 153.6C685.937 153.48 686.307 153.22 686.547 152.82C686.807 152.42 686.937 151.96 686.937 151.44C686.937 150.82 686.757 150.31 686.397 149.91C686.037 149.49 685.567 149.23 684.987 149.13C684.707 149.05 684.267 149.01 683.667 149.01H679.077V153.81H683.907ZM695.366 139.8V145.65H697.856C699.076 145.65 699.976 145.71 700.556 145.83C703.356 146.39 704.756 148.06 704.756 150.84C704.756 152.18 704.406 153.27 703.706 154.11C703.006 154.95 702.046 155.51 700.826 155.79C700.206 155.93 699.266 156 698.006 156H692.696V139.8H695.366ZM709.286 139.8V156H706.616V139.8H709.286ZM698.036 153.78C698.976 153.78 699.646 153.72 700.046 153.6C700.606 153.44 701.076 153.13 701.456 152.67C701.836 152.21 702.026 151.6 702.026 150.84C702.026 150.06 701.826 149.44 701.426 148.98C701.046 148.5 700.526 148.18 699.866 148.02C699.386 147.92 698.776 147.87 698.036 147.87H695.366V153.78H698.036ZM720.396 139.8C721.396 139.8 722.266 139.9 723.006 140.1C723.906 140.34 724.626 140.83 725.166 141.57C725.726 142.29 726.006 143.17 726.006 144.21C726.006 145.39 725.656 146.31 724.956 146.97C724.616 147.31 724.266 147.54 723.906 147.66C724.246 147.72 724.606 147.86 724.986 148.08C726.206 148.78 726.816 149.93 726.816 151.53C726.816 152.61 726.546 153.51 726.006 154.23C725.486 154.95 724.756 155.45 723.816 155.73C723.156 155.91 722.276 156 721.176 156H713.496V139.8H720.396ZM720.216 146.79C720.936 146.79 721.496 146.71 721.896 146.55C722.336 146.39 722.666 146.12 722.886 145.74C723.126 145.34 723.246 144.9 723.246 144.42C723.246 143.9 723.116 143.44 722.856 143.04C722.616 142.64 722.266 142.37 721.806 142.23C721.366 142.07 720.756 141.99 719.976 141.99H716.196V146.79H720.216ZM721.026 153.81C721.626 153.81 722.136 153.74 722.556 153.6C723.056 153.48 723.426 153.22 723.666 152.82C723.926 152.42 724.056 151.96 724.056 151.44C724.056 150.82 723.876 150.31 723.516 149.91C723.156 149.49 722.686 149.23 722.106 149.13C721.826 149.05 721.386 149.01 720.786 149.01H716.196V153.81H721.026ZM742.265 142.5C742.625 143.32 742.805 144.48 742.805 145.98V156H740.435V153.45C739.135 155.45 737.135 156.45 734.435 156.45C733.275 156.45 732.275 156.24 731.435 155.82C730.595 155.38 729.965 154.79 729.545 154.05C729.125 153.31 728.915 152.5 728.915 151.62C728.915 149.22 730.245 147.63 732.905 146.85C734.265 146.49 736.315 146.14 739.055 145.8L740.165 145.65C740.125 144.33 739.795 143.37 739.175 142.77C738.555 142.15 737.555 141.84 736.175 141.84C735.155 141.84 734.285 142.07 733.565 142.53C732.845 142.99 732.345 143.7 732.065 144.66L729.515 143.91C729.915 142.45 730.675 141.33 731.795 140.55C732.935 139.75 734.405 139.35 736.205 139.35C737.705 139.35 738.975 139.62 740.015 140.16C741.055 140.68 741.805 141.46 742.265 142.5ZM734.825 154.2C736.205 154.2 737.335 153.85 738.215 153.15C739.115 152.43 739.665 151.54 739.865 150.48C740.045 149.9 740.135 149.04 740.135 147.9C739.555 147.98 739.085 148.05 738.725 148.11C737.865 148.23 737.015 148.36 736.175 148.5C735.335 148.62 734.645 148.76 734.105 148.92C732.425 149.44 731.585 150.33 731.585 151.59C731.585 152.33 731.855 152.95 732.395 153.45C732.935 153.95 733.745 154.2 734.825 154.2ZM753.709 138C752.969 138 752.279 137.82 751.639 137.46C751.019 137.08 750.519 136.58 750.139 135.96C749.779 135.32 749.599 134.63 749.599 133.89H751.759C751.759 134.43 751.949 134.89 752.329 135.27C752.709 135.65 753.169 135.84 753.709 135.84C754.249 135.84 754.699 135.65 755.059 135.27C755.439 134.89 755.629 134.43 755.629 133.89H757.789C757.789 134.63 757.599 135.32 757.219 135.96C756.859 136.58 756.369 137.08 755.749 137.46C755.129 137.82 754.449 138 753.709 138ZM757.399 156V144.06L748.909 156H746.719V139.8H749.299V151.56L757.789 139.8H759.979V156H757.399ZM768.47 142.23H762.83V139.8H776.78V142.23H771.14V156H768.47V142.23ZM781.6 148.65C781.7 150.33 782.17 151.63 783.01 152.55C783.87 153.45 785.04 153.9 786.52 153.9C787.58 153.9 788.51 153.66 789.31 153.18C790.11 152.68 790.73 151.97 791.17 151.05L793.75 151.95C793.11 153.37 792.16 154.48 790.9 155.28C789.64 156.06 788.22 156.45 786.64 156.45C785.06 156.45 783.67 156.1 782.47 155.4C781.29 154.7 780.37 153.71 779.71 152.43C779.05 151.15 778.72 149.67 778.72 147.99C778.72 146.25 779.04 144.73 779.68 143.43C780.32 142.11 781.23 141.1 782.41 140.4C783.59 139.7 784.96 139.35 786.52 139.35C788.14 139.35 789.52 139.73 790.66 140.49C791.82 141.23 792.68 142.3 793.24 143.7C793.82 145.1 794.07 146.75 793.99 148.65H781.6ZM786.61 141.75C785.17 141.75 784.03 142.16 783.19 142.98C782.35 143.78 781.84 144.95 781.66 146.49H791.26C790.9 143.33 789.35 141.75 786.61 141.75ZM803.35 139.8H816.61V156H813.94V142.32H806.02V156H803.35V139.8ZM833.261 142.5C833.621 143.32 833.801 144.48 833.801 145.98V156H831.431V153.45C830.131 155.45 828.131 156.45 825.431 156.45C824.271 156.45 823.271 156.24 822.431 155.82C821.591 155.38 820.961 154.79 820.541 154.05C820.121 153.31 819.911 152.5 819.911 151.62C819.911 149.22 821.241 147.63 823.901 146.85C825.261 146.49 827.311 146.14 830.051 145.8L831.161 145.65C831.121 144.33 830.791 143.37 830.171 142.77C829.551 142.15 828.551 141.84 827.171 141.84C826.151 141.84 825.281 142.07 824.561 142.53C823.841 142.99 823.341 143.7 823.061 144.66L820.511 143.91C820.911 142.45 821.671 141.33 822.791 140.55C823.931 139.75 825.401 139.35 827.201 139.35C828.701 139.35 829.971 139.62 831.011 140.16C832.051 140.68 832.801 141.46 833.261 142.5ZM825.821 154.2C827.201 154.2 828.331 153.85 829.211 153.15C830.111 152.43 830.661 151.54 830.861 150.48C831.041 149.9 831.131 149.04 831.131 147.9C830.551 147.98 830.081 148.05 829.721 148.11C828.861 148.23 828.011 148.36 827.171 148.5C826.331 148.62 825.641 148.76 825.101 148.92C823.421 149.44 822.581 150.33 822.581 151.59C822.581 152.33 822.851 152.95 823.391 153.45C823.931 153.95 824.741 154.2 825.821 154.2ZM845.185 139.35C846.645 139.35 847.925 139.72 849.025 140.46C850.125 141.2 850.965 142.22 851.545 143.52C852.125 144.8 852.415 146.25 852.415 147.87C852.415 149.49 852.115 150.95 851.515 152.25C850.935 153.55 850.095 154.58 848.995 155.34C847.915 156.08 846.635 156.45 845.155 156.45C843.215 156.45 841.625 155.8 840.385 154.5V163.2H837.715V139.8H840.085V141.6C841.325 140.1 843.025 139.35 845.185 139.35ZM844.825 153.99C846.365 153.99 847.545 153.42 848.365 152.28C849.185 151.14 849.595 149.67 849.595 147.87C849.595 146.07 849.185 144.61 848.365 143.49C847.545 142.35 846.345 141.78 844.765 141.78C843.225 141.78 842.055 142.33 841.255 143.43C840.475 144.53 840.085 146.01 840.085 147.87C840.085 149.73 840.475 151.22 841.255 152.34C842.055 153.44 843.245 153.99 844.825 153.99ZM858.374 139.8V145.65H860.864C862.084 145.65 862.984 145.71 863.564 145.83C866.364 146.39 867.764 148.06 867.764 150.84C867.764 152.18 867.414 153.27 866.714 154.11C866.014 154.95 865.054 155.51 863.834 155.79C863.214 155.93 862.274 156 861.014 156H855.704V139.8H858.374ZM872.294 139.8V156H869.624V139.8H872.294ZM861.044 153.78C861.984 153.78 862.654 153.72 863.054 153.6C863.614 153.44 864.084 153.13 864.464 152.67C864.844 152.21 865.034 151.6 865.034 150.84C865.034 150.06 864.834 149.44 864.434 148.98C864.054 148.5 863.534 148.18 862.874 148.02C862.394 147.92 861.784 147.87 861.044 147.87H858.374V153.78H861.044ZM876.384 158.13C877.424 158.21 877.884 157.5 877.764 156H876.204V152.61H879.144V156.45C879.144 157.39 878.944 158.12 878.544 158.64C878.144 159.16 877.574 159.42 876.834 159.42C876.694 159.42 876.484 159.4 876.204 159.36L876.384 158.13ZM543.94 204.45C542.32 204.45 540.93 204.09 539.77 203.37C538.63 202.63 537.75 201.62 537.13 200.34C536.53 199.04 536.22 197.56 536.2 195.9C536.22 194.2 536.54 192.71 537.16 191.43C537.78 190.13 538.67 189.13 539.83 188.43C540.99 187.71 542.37 187.35 543.97 187.35C545.67 187.35 547.13 187.77 548.35 188.61C549.59 189.45 550.43 190.6 550.87 192.06L548.23 192.84C547.89 191.92 547.33 191.2 546.55 190.68C545.79 190.14 544.92 189.87 543.94 189.87C542.34 189.87 541.13 190.42 540.31 191.52C539.49 192.6 539.07 194.06 539.05 195.9C539.07 197.76 539.49 199.23 540.31 200.31C541.15 201.37 542.36 201.9 543.94 201.9C545.98 201.9 547.39 200.96 548.17 199.08L550.87 199.77C550.31 201.29 549.43 202.45 548.23 203.25C547.03 204.05 545.6 204.45 543.94 204.45ZM560.377 204.45C558.797 204.45 557.417 204.09 556.237 203.37C555.057 202.65 554.147 201.64 553.507 200.34C552.887 199.04 552.577 197.55 552.577 195.87C552.577 194.19 552.897 192.71 553.537 191.43C554.177 190.13 555.087 189.13 556.267 188.43C557.447 187.71 558.817 187.35 560.377 187.35C561.977 187.35 563.367 187.71 564.547 188.43C565.727 189.15 566.627 190.16 567.247 191.46C567.887 192.74 568.207 194.21 568.207 195.87C568.207 197.57 567.887 199.07 567.247 200.37C566.607 201.65 565.697 202.65 564.517 203.37C563.337 204.09 561.957 204.45 560.377 204.45ZM560.377 201.9C562.017 201.9 563.257 201.36 564.097 200.28C564.937 199.18 565.357 197.71 565.357 195.87C565.357 194.01 564.927 192.55 564.067 191.49C563.227 190.41 561.997 189.87 560.377 189.87C558.737 189.87 557.497 190.41 556.657 191.49C555.837 192.57 555.427 194.03 555.427 195.87C555.427 197.75 555.847 199.23 556.687 200.31C557.547 201.37 558.777 201.9 560.377 201.9ZM581.104 195.51C581.764 195.87 582.264 196.4 582.604 197.1C582.964 197.78 583.144 198.54 583.144 199.38C583.144 200.42 582.864 201.32 582.304 202.08C581.764 202.84 581.024 203.43 580.084 203.85C579.144 204.25 578.094 204.45 576.934 204.45C575.354 204.45 573.944 204.11 572.704 203.43C571.464 202.73 570.484 201.76 569.764 200.52L571.894 199.14C573.094 200.98 574.734 201.9 576.814 201.9C577.914 201.9 578.784 201.65 579.424 201.15C580.084 200.65 580.414 199.97 580.414 199.11C580.414 198.21 580.084 197.59 579.424 197.25C578.764 196.91 577.764 196.74 576.424 196.74H574.744V194.52H576.394C578.774 194.52 579.964 193.77 579.964 192.27C579.964 191.49 579.664 190.9 579.064 190.5C578.484 190.08 577.744 189.87 576.844 189.87C575.984 189.87 575.134 190.05 574.294 190.41C573.454 190.77 572.734 191.25 572.134 191.85L570.514 190.02C571.354 189.16 572.324 188.5 573.424 188.04C574.524 187.58 575.714 187.35 576.994 187.35C578.614 187.35 579.964 187.77 581.044 188.61C582.144 189.45 582.694 190.6 582.694 192.06C582.694 193.46 582.164 194.61 581.104 195.51ZM585.236 201.78C586.116 201.78 586.756 201.5 587.156 200.94C587.576 200.36 587.906 199.36 588.146 197.94C588.366 196.7 588.536 195.32 588.656 193.8C588.776 192.26 588.896 190.26 589.016 187.8H600.176V201.78H601.736V207.6H599.186V204H587.786V207.6H585.236V201.78ZM597.506 189.99H591.416C591.196 194.21 590.926 197.07 590.606 198.57C590.446 199.41 590.276 200.08 590.096 200.58C589.936 201.06 589.686 201.46 589.346 201.78H597.506V189.99ZM616.288 190.5C616.648 191.32 616.828 192.48 616.828 193.98V204H614.458V201.45C613.158 203.45 611.158 204.45 608.458 204.45C607.298 204.45 606.298 204.24 605.458 203.82C604.618 203.38 603.988 202.79 603.568 202.05C603.148 201.31 602.938 200.5 602.938 199.62C602.938 197.22 604.268 195.63 606.928 194.85C608.288 194.49 610.338 194.14 613.078 193.8L614.188 193.65C614.148 192.33 613.818 191.37 613.198 190.77C612.578 190.15 611.578 189.84 610.198 189.84C609.178 189.84 608.308 190.07 607.588 190.53C606.868 190.99 606.368 191.7 606.088 192.66L603.538 191.91C603.938 190.45 604.698 189.33 605.818 188.55C606.958 187.75 608.428 187.35 610.228 187.35C611.728 187.35 612.998 187.62 614.038 188.16C615.078 188.68 615.828 189.46 616.288 190.5ZM608.848 202.2C610.228 202.2 611.358 201.85 612.238 201.15C613.138 200.43 613.688 199.54 613.888 198.48C614.068 197.9 614.158 197.04 614.158 195.9C613.578 195.98 613.108 196.05 612.748 196.11C611.888 196.23 611.038 196.36 610.198 196.5C609.358 196.62 608.668 196.76 608.128 196.92C606.448 197.44 605.608 198.33 605.608 199.59C605.608 200.33 605.878 200.95 606.418 201.45C606.958 201.95 607.768 202.2 608.848 202.2ZM627.643 187.8C628.643 187.8 629.513 187.9 630.253 188.1C631.153 188.34 631.873 188.83 632.413 189.57C632.973 190.29 633.253 191.17 633.253 192.21C633.253 193.39 632.903 194.31 632.203 194.97C631.863 195.31 631.513 195.54 631.153 195.66C631.493 195.72 631.853 195.86 632.233 196.08C633.453 196.78 634.063 197.93 634.063 199.53C634.063 200.61 633.793 201.51 633.253 202.23C632.733 202.95 632.003 203.45 631.063 203.73C630.403 203.91 629.523 204 628.423 204H620.743V187.8H627.643ZM627.463 194.79C628.183 194.79 628.743 194.71 629.143 194.55C629.583 194.39 629.913 194.12 630.133 193.74C630.373 193.34 630.493 192.9 630.493 192.42C630.493 191.9 630.363 191.44 630.103 191.04C629.863 190.64 629.513 190.37 629.053 190.23C628.613 190.07 628.003 189.99 627.223 189.99H623.443V194.79H627.463ZM628.273 201.81C628.873 201.81 629.383 201.74 629.803 201.6C630.303 201.48 630.673 201.22 630.913 200.82C631.173 200.42 631.303 199.96 631.303 199.44C631.303 198.82 631.123 198.31 630.763 197.91C630.403 197.49 629.933 197.23 629.353 197.13C629.073 197.05 628.633 197.01 628.033 197.01H623.443V201.81H628.273ZM649.511 190.5C649.871 191.32 650.051 192.48 650.051 193.98V204H647.681V201.45C646.381 203.45 644.381 204.45 641.681 204.45C640.521 204.45 639.521 204.24 638.681 203.82C637.841 203.38 637.211 202.79 636.791 202.05C636.371 201.31 636.161 200.5 636.161 199.62C636.161 197.22 637.491 195.63 640.151 194.85C641.511 194.49 643.561 194.14 646.301 193.8L647.411 193.65C647.371 192.33 647.041 191.37 646.421 190.77C645.801 190.15 644.801 189.84 643.421 189.84C642.401 189.84 641.531 190.07 640.811 190.53C640.091 190.99 639.591 191.7 639.311 192.66L636.761 191.91C637.161 190.45 637.921 189.33 639.041 188.55C640.181 187.75 641.651 187.35 643.451 187.35C644.951 187.35 646.221 187.62 647.261 188.16C648.301 188.68 649.051 189.46 649.511 190.5ZM642.071 202.2C643.451 202.2 644.581 201.85 645.461 201.15C646.361 200.43 646.911 199.54 647.111 198.48C647.291 197.9 647.381 197.04 647.381 195.9C646.801 195.98 646.331 196.05 645.971 196.11C645.111 196.23 644.261 196.36 643.421 196.5C642.581 196.62 641.891 196.76 641.351 196.92C639.671 197.44 638.831 198.33 638.831 199.59C638.831 200.33 639.101 200.95 639.641 201.45C640.181 201.95 640.991 202.2 642.071 202.2ZM660.955 186C660.215 186 659.525 185.82 658.885 185.46C658.265 185.08 657.765 184.58 657.385 183.96C657.025 183.32 656.845 182.63 656.845 181.89H659.005C659.005 182.43 659.195 182.89 659.575 183.27C659.955 183.65 660.415 183.84 660.955 183.84C661.495 183.84 661.945 183.65 662.305 183.27C662.685 182.89 662.875 182.43 662.875 181.89H665.035C665.035 182.63 664.845 183.32 664.465 183.96C664.105 184.58 663.615 185.08 662.995 185.46C662.375 185.82 661.695 186 660.955 186ZM664.645 204V192.06L656.155 204H653.965V187.8H656.545V199.56L665.035 187.8H667.225V204H664.645ZM675.716 190.23H670.076V187.8H684.026V190.23H678.386V204H675.716V190.23ZM688.846 196.65C688.946 198.33 689.416 199.63 690.256 200.55C691.116 201.45 692.286 201.9 693.766 201.9C694.826 201.9 695.756 201.66 696.556 201.18C697.356 200.68 697.976 199.97 698.416 199.05L700.996 199.95C700.356 201.37 699.406 202.48 698.146 203.28C696.886 204.06 695.466 204.45 693.886 204.45C692.306 204.45 690.916 204.1 689.716 203.4C688.536 202.7 687.616 201.71 686.956 200.43C686.296 199.15 685.966 197.67 685.966 195.99C685.966 194.25 686.286 192.73 686.926 191.43C687.566 190.11 688.476 189.1 689.656 188.4C690.836 187.7 692.206 187.35 693.766 187.35C695.386 187.35 696.766 187.73 697.906 188.49C699.066 189.23 699.926 190.3 700.486 191.7C701.066 193.1 701.316 194.75 701.236 196.65H688.846ZM693.856 189.75C692.416 189.75 691.276 190.16 690.436 190.98C689.596 191.78 689.086 192.95 688.906 194.49H698.506C698.146 191.33 696.596 189.75 693.856 189.75ZM710.596 187.8H712.876L719.026 200.37L725.176 187.8H727.486V204H724.906V193.35L719.746 204H718.336L713.176 193.35V204H710.596V187.8ZM744.14 190.5C744.5 191.32 744.68 192.48 744.68 193.98V204H742.31V201.45C741.01 203.45 739.01 204.45 736.31 204.45C735.15 204.45 734.15 204.24 733.31 203.82C732.47 203.38 731.84 202.79 731.42 202.05C731 201.31 730.79 200.5 730.79 199.62C730.79 197.22 732.12 195.63 734.78 194.85C736.14 194.49 738.19 194.14 740.93 193.8L742.04 193.65C742 192.33 741.67 191.37 741.05 190.77C740.43 190.15 739.43 189.84 738.05 189.84C737.03 189.84 736.16 190.07 735.44 190.53C734.72 190.99 734.22 191.7 733.94 192.66L731.39 191.91C731.79 190.45 732.55 189.33 733.67 188.55C734.81 187.75 736.28 187.35 738.08 187.35C739.58 187.35 740.85 187.62 741.89 188.16C742.93 188.68 743.68 189.46 744.14 190.5ZM736.7 202.2C738.08 202.2 739.21 201.85 740.09 201.15C740.99 200.43 741.54 199.54 741.74 198.48C741.92 197.9 742.01 197.04 742.01 195.9C741.43 195.98 740.96 196.05 740.6 196.11C739.74 196.23 738.89 196.36 738.05 196.5C737.21 196.62 736.52 196.76 735.98 196.92C734.3 197.44 733.46 198.33 733.46 199.59C733.46 200.33 733.73 200.95 734.27 201.45C734.81 201.95 735.62 202.2 736.7 202.2ZM752.884 190.23H747.244V187.8H761.194V190.23H755.554V204H752.884V190.23ZM766.014 196.65C766.114 198.33 766.584 199.63 767.424 200.55C768.284 201.45 769.454 201.9 770.934 201.9C771.994 201.9 772.924 201.66 773.724 201.18C774.524 200.68 775.144 199.97 775.584 199.05L778.164 199.95C777.524 201.37 776.574 202.48 775.314 203.28C774.054 204.06 772.634 204.45 771.054 204.45C769.474 204.45 768.084 204.1 766.884 203.4C765.704 202.7 764.784 201.71 764.124 200.43C763.464 199.15 763.134 197.67 763.134 195.99C763.134 194.25 763.454 192.73 764.094 191.43C764.734 190.11 765.644 189.1 766.824 188.4C768.004 187.7 769.374 187.35 770.934 187.35C772.554 187.35 773.934 187.73 775.074 188.49C776.234 189.23 777.094 190.3 777.654 191.7C778.234 193.1 778.484 194.75 778.404 196.65H766.014ZM771.024 189.75C769.584 189.75 768.444 190.16 767.604 190.98C766.764 191.78 766.254 192.95 766.074 194.49H775.674C775.314 191.33 773.764 189.75 771.024 189.75ZM789.228 187.35C790.688 187.35 791.968 187.72 793.068 188.46C794.168 189.2 795.008 190.22 795.588 191.52C796.168 192.8 796.458 194.25 796.458 195.87C796.458 197.49 796.158 198.95 795.558 200.25C794.978 201.55 794.138 202.58 793.038 203.34C791.958 204.08 790.678 204.45 789.198 204.45C787.258 204.45 785.668 203.8 784.428 202.5V211.2H781.758V187.8H784.128V189.6C785.368 188.1 787.068 187.35 789.228 187.35ZM788.868 201.99C790.408 201.99 791.588 201.42 792.408 200.28C793.228 199.14 793.638 197.67 793.638 195.87C793.638 194.07 793.228 192.61 792.408 191.49C791.588 190.35 790.388 189.78 788.808 189.78C787.268 189.78 786.098 190.33 785.298 191.43C784.518 192.53 784.128 194.01 784.128 195.87C784.128 197.73 784.518 199.22 785.298 200.34C786.098 201.44 787.288 201.99 788.868 201.99ZM813.006 204H810.426V192.06L801.936 204H799.746V187.8H802.326V199.56L810.816 187.8H813.006V204ZM829.657 190.5C830.017 191.32 830.197 192.48 830.197 193.98V204H827.827V201.45C826.527 203.45 824.527 204.45 821.827 204.45C820.667 204.45 819.667 204.24 818.827 203.82C817.987 203.38 817.357 202.79 816.937 202.05C816.517 201.31 816.307 200.5 816.307 199.62C816.307 197.22 817.637 195.63 820.297 194.85C821.657 194.49 823.707 194.14 826.447 193.8L827.557 193.65C827.517 192.33 827.187 191.37 826.567 190.77C825.947 190.15 824.947 189.84 823.567 189.84C822.547 189.84 821.677 190.07 820.957 190.53C820.237 190.99 819.737 191.7 819.457 192.66L816.907 191.91C817.307 190.45 818.067 189.33 819.187 188.55C820.327 187.75 821.797 187.35 823.597 187.35C825.097 187.35 826.367 187.62 827.407 188.16C828.447 188.68 829.197 189.46 829.657 190.5ZM822.217 202.2C823.597 202.2 824.727 201.85 825.607 201.15C826.507 200.43 827.057 199.54 827.257 198.48C827.437 197.9 827.527 197.04 827.527 195.9C826.947 195.98 826.477 196.05 826.117 196.11C825.257 196.23 824.407 196.36 823.567 196.5C822.727 196.62 822.037 196.76 821.497 196.92C819.817 197.44 818.977 198.33 818.977 199.59C818.977 200.33 819.247 200.95 819.787 201.45C820.327 201.95 821.137 202.2 822.217 202.2ZM832.612 201.69C832.772 201.73 832.992 201.75 833.272 201.75C833.852 201.75 834.252 201.57 834.472 201.21C834.712 200.83 834.912 200.2 835.072 199.32C835.492 196.98 835.852 193.14 836.152 187.8H847.492V204H844.822V190.32H838.582C838.222 195.2 837.852 198.62 837.472 200.58C837.232 201.84 836.872 202.76 836.392 203.34C835.912 203.9 835.192 204.18 834.232 204.18C833.752 204.18 833.212 204.12 832.612 204V201.69ZM854.36 187.8V193.65H856.85C858.07 193.65 858.97 193.71 859.55 193.83C862.35 194.39 863.75 196.06 863.75 198.84C863.75 200.18 863.4 201.27 862.7 202.11C862 202.95 861.04 203.51 859.82 203.79C859.2 203.93 858.26 204 857 204H851.69V187.8H854.36ZM868.28 187.8V204H865.61V187.8H868.28ZM857.03 201.78C857.97 201.78 858.64 201.72 859.04 201.6C859.6 201.44 860.07 201.13 860.45 200.67C860.83 200.21 861.02 199.6 861.02 198.84C861.02 198.06 860.82 197.44 860.42 196.98C860.04 196.5 859.52 196.18 858.86 196.02C858.38 195.92 857.77 195.87 857.03 195.87H854.36V201.78H857.03ZM872.371 206.13C873.411 206.21 873.871 205.5 873.751 204H872.191V200.61H875.131V204.45C875.131 205.39 874.931 206.12 874.531 206.64C874.131 207.16 873.561 207.42 872.821 207.42C872.681 207.42 872.471 207.4 872.191 207.36L872.371 206.13ZM537.1 235.8H548.35V238.32H539.77V252H537.1V235.8ZM558.662 235.35C560.122 235.35 561.402 235.72 562.502 236.46C563.602 237.2 564.442 238.22 565.022 239.52C565.602 240.8 565.892 242.25 565.892 243.87C565.892 245.49 565.592 246.95 564.992 248.25C564.412 249.55 563.572 250.58 562.472 251.34C561.392 252.08 560.112 252.45 558.632 252.45C556.692 252.45 555.102 251.8 553.862 250.5V259.2H551.192V235.8H553.562V237.6C554.802 236.1 556.502 235.35 558.662 235.35ZM558.302 249.99C559.842 249.99 561.022 249.42 561.842 248.28C562.662 247.14 563.072 245.67 563.072 243.87C563.072 242.07 562.662 240.61 561.842 239.49C561.022 238.35 559.822 237.78 558.242 237.78C556.702 237.78 555.532 238.33 554.732 239.43C553.952 240.53 553.562 242.01 553.562 243.87C553.562 245.73 553.952 247.22 554.732 248.34C555.532 249.44 556.722 249.99 558.302 249.99ZM579.544 235.8H582.274L573.454 259.2H570.844L573.514 251.97L566.944 235.8H569.764L574.804 248.52L579.544 235.8ZM584.737 235.8H597.997V252H595.327V238.32H587.407V252H584.737V235.8ZM602.198 235.8H615.458V252H612.788V238.32H604.868V252H602.198V235.8ZM626.559 252.45C624.979 252.45 623.599 252.09 622.419 251.37C621.239 250.65 620.329 249.64 619.689 248.34C619.069 247.04 618.759 245.55 618.759 243.87C618.759 242.19 619.079 240.71 619.719 239.43C620.359 238.13 621.269 237.13 622.449 236.43C623.629 235.71 624.999 235.35 626.559 235.35C628.159 235.35 629.549 235.71 630.729 236.43C631.909 237.15 632.809 238.16 633.429 239.46C634.069 240.74 634.389 242.21 634.389 243.87C634.389 245.57 634.069 247.07 633.429 248.37C632.789 249.65 631.879 250.65 630.699 251.37C629.519 252.09 628.139 252.45 626.559 252.45ZM626.559 249.9C628.199 249.9 629.439 249.36 630.279 248.28C631.119 247.18 631.539 245.71 631.539 243.87C631.539 242.01 631.109 240.55 630.249 239.49C629.409 238.41 628.179 237.87 626.559 237.87C624.919 237.87 623.679 238.41 622.839 239.49C622.019 240.57 621.609 242.03 621.609 243.87C621.609 245.75 622.029 247.23 622.869 248.31C623.729 249.37 624.959 249.9 626.559 249.9ZM644.576 235.8C645.576 235.8 646.446 235.9 647.186 236.1C648.086 236.34 648.806 236.83 649.346 237.57C649.906 238.29 650.186 239.17 650.186 240.21C650.186 241.39 649.836 242.31 649.136 242.97C648.796 243.31 648.446 243.54 648.086 243.66C648.426 243.72 648.786 243.86 649.166 244.08C650.386 244.78 650.996 245.93 650.996 247.53C650.996 248.61 650.726 249.51 650.186 250.23C649.666 250.95 648.936 251.45 647.996 251.73C647.336 251.91 646.456 252 645.356 252H637.676V235.8H644.576ZM644.396 242.79C645.116 242.79 645.676 242.71 646.076 242.55C646.516 242.39 646.846 242.12 647.066 241.74C647.306 241.34 647.426 240.9 647.426 240.42C647.426 239.9 647.296 239.44 647.036 239.04C646.796 238.64 646.446 238.37 645.986 238.23C645.546 238.07 644.936 237.99 644.156 237.99H640.376V242.79H644.396ZM645.206 249.81C645.806 249.81 646.316 249.74 646.736 249.6C647.236 249.48 647.606 249.22 647.846 248.82C648.106 248.42 648.236 247.96 648.236 247.44C648.236 246.82 648.056 246.31 647.696 245.91C647.336 245.49 646.866 245.23 646.286 245.13C646.006 245.05 645.566 245.01 644.966 245.01H640.376V249.81H645.206ZM664.945 235.8H667.675L658.855 259.2H656.245L658.915 251.97L652.345 235.8H655.165L660.205 248.52L664.945 235.8ZM683.367 252.45C681.287 252.45 679.587 251.81 678.267 250.53C676.967 249.23 676.197 247.46 675.957 245.22H672.807V252H670.137V235.8H672.807V242.55H675.957C676.177 240.31 676.947 238.55 678.267 237.27C679.607 235.99 681.317 235.35 683.397 235.35C684.977 235.35 686.347 235.71 687.507 236.43C688.687 237.15 689.587 238.16 690.207 239.46C690.847 240.74 691.167 242.21 691.167 243.87C691.167 245.55 690.847 247.04 690.207 248.34C689.587 249.64 688.687 250.65 687.507 251.37C686.327 252.09 684.947 252.45 683.367 252.45ZM683.307 249.9C684.947 249.9 686.197 249.36 687.057 248.28C687.917 247.2 688.347 245.73 688.347 243.87C688.347 241.99 687.917 240.52 687.057 239.46C686.217 238.4 684.977 237.87 683.337 237.87C681.737 237.87 680.507 238.4 679.647 239.46C678.807 240.52 678.387 241.99 678.387 243.87C678.387 245.73 678.807 247.2 679.647 248.28C680.507 249.36 681.727 249.9 683.307 249.9ZM707.929 235.35C709.389 235.35 710.669 235.72 711.769 236.46C712.869 237.2 713.709 238.22 714.289 239.52C714.869 240.8 715.159 242.25 715.159 243.87C715.159 245.49 714.859 246.95 714.259 248.25C713.679 249.55 712.839 250.58 711.739 251.34C710.659 252.08 709.379 252.45 707.899 252.45C705.959 252.45 704.369 251.8 703.129 250.5V259.2H700.459V235.8H702.829V237.6C704.069 236.1 705.769 235.35 707.929 235.35ZM707.569 249.99C709.109 249.99 710.289 249.42 711.109 248.28C711.929 247.14 712.339 245.67 712.339 243.87C712.339 242.07 711.929 240.61 711.109 239.49C710.289 238.35 709.089 237.78 707.509 237.78C705.969 237.78 704.799 238.33 703.999 239.43C703.219 240.53 702.829 242.01 702.829 243.87C702.829 245.73 703.219 247.22 703.999 248.34C704.799 249.44 705.989 249.99 707.569 249.99ZM730.898 238.5C731.258 239.32 731.438 240.48 731.438 241.98V252H729.068V249.45C727.768 251.45 725.768 252.45 723.068 252.45C721.908 252.45 720.908 252.24 720.068 251.82C719.228 251.38 718.598 250.79 718.178 250.05C717.758 249.31 717.548 248.5 717.548 247.62C717.548 245.22 718.878 243.63 721.538 242.85C722.898 242.49 724.948 242.14 727.688 241.8L728.798 241.65C728.758 240.33 728.428 239.37 727.808 238.77C727.188 238.15 726.188 237.84 724.808 237.84C723.788 237.84 722.918 238.07 722.198 238.53C721.478 238.99 720.978 239.7 720.698 240.66L718.148 239.91C718.548 238.45 719.308 237.33 720.428 236.55C721.568 235.75 723.038 235.35 724.838 235.35C726.338 235.35 727.608 235.62 728.648 236.16C729.688 236.68 730.438 237.46 730.898 238.5ZM723.458 250.2C724.838 250.2 725.968 249.85 726.848 249.15C727.748 248.43 728.298 247.54 728.498 246.48C728.678 245.9 728.768 245.04 728.768 243.9C728.188 243.98 727.718 244.05 727.358 244.11C726.498 244.23 725.648 244.36 724.808 244.5C723.968 244.62 723.278 244.76 722.738 244.92C721.058 245.44 720.218 246.33 720.218 247.59C720.218 248.33 720.488 248.95 721.028 249.45C721.568 249.95 722.378 250.2 723.458 250.2ZM741.952 252.48C739.652 252.46 737.862 251.72 736.582 250.26C735.302 248.78 734.612 246.66 734.512 243.9C734.492 243.68 734.482 243.34 734.482 242.88C734.482 241.6 734.572 240.3 734.752 238.98C734.932 237.64 735.172 236.59 735.472 235.83C735.752 235.11 736.132 234.44 736.612 233.82C737.112 233.18 737.672 232.66 738.292 232.26C739.112 231.7 740.042 231.3 741.082 231.06C742.122 230.8 743.492 230.56 745.192 230.34C746.432 230.18 747.332 230.05 747.892 229.95L748.162 232.35C747.842 232.41 747.022 232.53 745.702 232.71C744.202 232.91 742.982 233.11 742.042 233.31C741.102 233.51 740.312 233.81 739.672 234.21C738.912 234.67 738.322 235.36 737.902 236.28C737.482 237.2 737.222 238.26 737.122 239.46C737.722 238.54 738.502 237.85 739.462 237.39C740.442 236.91 741.522 236.67 742.702 236.67C744.122 236.67 745.362 237.01 746.422 237.69C747.482 238.35 748.292 239.27 748.852 240.45C749.432 241.63 749.722 242.98 749.722 244.5C749.722 246.08 749.402 247.48 748.762 248.7C748.122 249.9 747.212 250.83 746.032 251.49C744.872 252.15 743.512 252.48 741.952 252.48ZM742.102 249.93C743.642 249.93 744.822 249.45 745.642 248.49C746.482 247.53 746.902 246.22 746.902 244.56C746.902 242.9 746.472 241.6 745.612 240.66C744.772 239.7 743.602 239.22 742.102 239.22C740.582 239.22 739.402 239.7 738.562 240.66C737.742 241.6 737.332 242.9 737.332 244.56C737.332 246.26 737.742 247.58 738.562 248.52C739.382 249.46 740.562 249.93 742.102 249.93ZM759.918 252.45C758.338 252.45 756.958 252.09 755.778 251.37C754.598 250.65 753.688 249.64 753.048 248.34C752.428 247.04 752.118 245.55 752.118 243.87C752.118 242.19 752.438 240.71 753.078 239.43C753.718 238.13 754.628 237.13 755.808 236.43C756.988 235.71 758.358 235.35 759.918 235.35C761.518 235.35 762.908 235.71 764.088 236.43C765.268 237.15 766.168 238.16 766.788 239.46C767.428 240.74 767.748 242.21 767.748 243.87C767.748 245.57 767.428 247.07 766.788 248.37C766.148 249.65 765.238 250.65 764.058 251.37C762.878 252.09 761.498 252.45 759.918 252.45ZM759.918 249.9C761.558 249.9 762.798 249.36 763.638 248.28C764.478 247.18 764.898 245.71 764.898 243.87C764.898 242.01 764.468 240.55 763.608 239.49C762.768 238.41 761.538 237.87 759.918 237.87C758.278 237.87 757.038 238.41 756.198 239.49C755.378 240.57 754.968 242.03 754.968 243.87C754.968 245.75 755.388 247.23 756.228 248.31C757.088 249.37 758.318 249.9 759.918 249.9ZM774.945 238.23H769.305V235.8H783.255V238.23H777.615V252H774.945V238.23ZM796.751 235.8H799.481L790.661 259.2H788.051L790.721 251.97L784.151 235.8H786.971L792.011 248.52L796.751 235.8ZM550.36 300H547.78V288.06L539.29 300H537.1V283.8H539.68V295.56L548.17 283.8H550.36V300ZM560.567 283.8H573.827V300H571.157V286.32H563.237V300H560.567V283.8ZM585.498 283.35C586.958 283.35 588.238 283.72 589.338 284.46C590.438 285.2 591.278 286.22 591.858 287.52C592.438 288.8 592.728 290.25 592.728 291.87C592.728 293.49 592.428 294.95 591.828 296.25C591.248 297.55 590.408 298.58 589.308 299.34C588.228 300.08 586.948 300.45 585.468 300.45C583.528 300.45 581.938 299.8 580.698 298.5V307.2H578.028V283.8H580.398V285.6C581.638 284.1 583.338 283.35 585.498 283.35ZM585.138 297.99C586.678 297.99 587.858 297.42 588.678 296.28C589.498 295.14 589.908 293.67 589.908 291.87C589.908 290.07 589.498 288.61 588.678 287.49C587.858 286.35 586.658 285.78 585.078 285.78C583.538 285.78 582.368 286.33 581.568 287.43C580.788 288.53 580.398 290.01 580.398 291.87C580.398 293.73 580.788 295.22 581.568 296.34C582.368 297.44 583.558 297.99 585.138 297.99ZM602.916 300.45C601.336 300.45 599.956 300.09 598.776 299.37C597.596 298.65 596.686 297.64 596.046 296.34C595.426 295.04 595.116 293.55 595.116 291.87C595.116 290.19 595.436 288.71 596.076 287.43C596.716 286.13 597.626 285.13 598.806 284.43C599.986 283.71 601.356 283.35 602.916 283.35C604.516 283.35 605.906 283.71 607.086 284.43C608.266 285.15 609.166 286.16 609.786 287.46C610.426 288.74 610.746 290.21 610.746 291.87C610.746 293.57 610.426 295.07 609.786 296.37C609.146 297.65 608.236 298.65 607.056 299.37C605.876 300.09 604.496 300.45 602.916 300.45ZM602.916 297.9C604.556 297.9 605.796 297.36 606.636 296.28C607.476 295.18 607.896 293.71 607.896 291.87C607.896 290.01 607.466 288.55 606.606 287.49C605.766 286.41 604.536 285.87 602.916 285.87C601.276 285.87 600.036 286.41 599.196 287.49C598.376 288.57 597.966 290.03 597.966 291.87C597.966 293.75 598.386 295.23 599.226 296.31C600.086 297.37 601.316 297.9 602.916 297.9ZM620.934 283.8C621.934 283.8 622.804 283.9 623.544 284.1C624.444 284.34 625.164 284.83 625.704 285.57C626.264 286.29 626.544 287.17 626.544 288.21C626.544 289.39 626.194 290.31 625.494 290.97C625.154 291.31 624.804 291.54 624.444 291.66C624.784 291.72 625.144 291.86 625.524 292.08C626.744 292.78 627.354 293.93 627.354 295.53C627.354 296.61 627.084 297.51 626.544 298.23C626.024 298.95 625.294 299.45 624.354 299.73C623.694 299.91 622.814 300 621.714 300H614.034V283.8H620.934ZM620.754 290.79C621.474 290.79 622.034 290.71 622.434 290.55C622.874 290.39 623.204 290.12 623.424 289.74C623.664 289.34 623.784 288.9 623.784 288.42C623.784 287.9 623.654 287.44 623.394 287.04C623.154 286.64 622.804 286.37 622.344 286.23C621.904 286.07 621.294 285.99 620.514 285.99H616.734V290.79H620.754ZM621.564 297.81C622.164 297.81 622.674 297.74 623.094 297.6C623.594 297.48 623.964 297.22 624.204 296.82C624.464 296.42 624.594 295.96 624.594 295.44C624.594 294.82 624.414 294.31 624.054 293.91C623.694 293.49 623.224 293.23 622.644 293.13C622.364 293.05 621.924 293.01 621.324 293.01H616.734V297.81H621.564ZM632.332 292.65C632.432 294.33 632.902 295.63 633.742 296.55C634.602 297.45 635.772 297.9 637.252 297.9C638.312 297.9 639.242 297.66 640.042 297.18C640.842 296.68 641.462 295.97 641.902 295.05L644.482 295.95C643.842 297.37 642.892 298.48 641.632 299.28C640.372 300.06 638.952 300.45 637.372 300.45C635.792 300.45 634.402 300.1 633.202 299.4C632.022 298.7 631.102 297.71 630.442 296.43C629.782 295.15 629.452 293.67 629.452 291.99C629.452 290.25 629.772 288.73 630.412 287.43C631.052 286.11 631.962 285.1 633.142 284.4C634.322 283.7 635.692 283.35 637.252 283.35C638.872 283.35 640.252 283.73 641.392 284.49C642.552 285.23 643.412 286.3 643.972 287.7C644.552 289.1 644.802 290.75 644.722 292.65H632.332ZM637.342 285.75C635.902 285.75 634.762 286.16 633.922 286.98C633.082 287.78 632.572 288.95 632.392 290.49H641.992C641.632 287.33 640.082 285.75 637.342 285.75ZM655.547 283.35C657.007 283.35 658.287 283.72 659.387 284.46C660.487 285.2 661.327 286.22 661.907 287.52C662.487 288.8 662.777 290.25 662.777 291.87C662.777 293.49 662.477 294.95 661.877 296.25C661.297 297.55 660.457 298.58 659.357 299.34C658.277 300.08 656.997 300.45 655.517 300.45C653.577 300.45 651.987 299.8 650.747 298.5V307.2H648.077V283.8H650.447V285.6C651.687 284.1 653.387 283.35 655.547 283.35ZM655.187 297.99C656.727 297.99 657.907 297.42 658.727 296.28C659.547 295.14 659.957 293.67 659.957 291.87C659.957 290.07 659.547 288.61 658.727 287.49C657.907 286.35 656.707 285.78 655.127 285.78C653.587 285.78 652.417 286.33 651.617 287.43C650.837 288.53 650.447 290.01 650.447 291.87C650.447 293.73 650.837 295.22 651.617 296.34C652.417 297.44 653.607 297.99 655.187 297.99ZM678.755 283.8V300H676.085V294.12H672.575H671.915L668.045 300H665.165L669.245 293.76C668.165 293.46 667.295 292.91 666.635 292.11C665.995 291.31 665.675 290.28 665.675 289.02C665.675 287.68 666.035 286.58 666.755 285.72C667.475 284.84 668.425 284.27 669.605 284.01C670.265 283.87 671.205 283.8 672.425 283.8H678.755ZM676.085 285.99H672.395C671.595 285.99 670.935 286.06 670.415 286.2C669.875 286.36 669.405 286.69 669.005 287.19C668.605 287.67 668.405 288.27 668.405 288.99C668.405 289.71 668.605 290.31 669.005 290.79C669.405 291.25 669.925 291.57 670.565 291.75C671.085 291.87 671.695 291.93 672.395 291.93H676.085V285.99ZM689.959 282C689.219 282 688.529 281.82 687.889 281.46C687.269 281.08 686.769 280.58 686.389 279.96C686.029 279.32 685.849 278.63 685.849 277.89H688.009C688.009 278.43 688.199 278.89 688.579 279.27C688.959 279.65 689.419 279.84 689.959 279.84C690.499 279.84 690.949 279.65 691.309 279.27C691.689 278.89 691.879 278.43 691.879 277.89H694.039C694.039 278.63 693.849 279.32 693.469 279.96C693.109 280.58 692.619 281.08 691.999 281.46C691.379 281.82 690.699 282 689.959 282ZM693.649 300V288.06L685.159 300H682.969V283.8H685.549V295.56L694.039 283.8H696.229V300H693.649ZM704.72 286.23H699.08V283.8H713.03V286.23H707.39V300H704.72V286.23ZM717.85 292.65C717.95 294.33 718.42 295.63 719.26 296.55C720.12 297.45 721.29 297.9 722.77 297.9C723.83 297.9 724.76 297.66 725.56 297.18C726.36 296.68 726.98 295.97 727.42 295.05L730 295.95C729.36 297.37 728.41 298.48 727.15 299.28C725.89 300.06 724.47 300.45 722.89 300.45C721.31 300.45 719.92 300.1 718.72 299.4C717.54 298.7 716.62 297.71 715.96 296.43C715.3 295.15 714.97 293.67 714.97 291.99C714.97 290.25 715.29 288.73 715.93 287.43C716.57 286.11 717.48 285.1 718.66 284.4C719.84 283.7 721.21 283.35 722.77 283.35C724.39 283.35 725.77 283.73 726.91 284.49C728.07 285.23 728.93 286.3 729.49 287.7C730.07 289.1 730.32 290.75 730.24 292.65H717.85ZM722.86 285.75C721.42 285.75 720.28 286.16 719.44 286.98C718.6 287.78 718.09 288.95 717.91 290.49H727.51C727.15 287.33 725.6 285.75 722.86 285.75ZM739.6 283.8H742.3V291.6L749.11 283.8H752.56L745.42 291.9L753.4 300H749.68L742.3 292.2V300H739.6V283.8ZM767.343 286.5C767.703 287.32 767.883 288.48 767.883 289.98V300H765.513V297.45C764.213 299.45 762.213 300.45 759.513 300.45C758.353 300.45 757.353 300.24 756.513 299.82C755.673 299.38 755.043 298.79 754.623 298.05C754.203 297.31 753.993 296.5 753.993 295.62C753.993 293.22 755.323 291.63 757.983 290.85C759.343 290.49 761.393 290.14 764.133 289.8L765.243 289.65C765.203 288.33 764.873 287.37 764.253 286.77C763.633 286.15 762.633 285.84 761.253 285.84C760.233 285.84 759.363 286.07 758.643 286.53C757.923 286.99 757.423 287.7 757.143 288.66L754.593 287.91C754.993 286.45 755.753 285.33 756.873 284.55C758.013 283.75 759.483 283.35 761.283 283.35C762.783 283.35 764.053 283.62 765.093 284.16C766.133 284.68 766.883 285.46 767.343 286.5ZM759.903 298.2C761.283 298.2 762.413 297.85 763.293 297.15C764.193 296.43 764.743 295.54 764.943 294.48C765.123 293.9 765.213 293.04 765.213 291.9C764.633 291.98 764.163 292.05 763.803 292.11C762.943 292.23 762.093 292.36 761.253 292.5C760.413 292.62 759.723 292.76 759.183 292.92C757.503 293.44 756.663 294.33 756.663 295.59C756.663 296.33 756.933 296.95 757.473 297.45C758.013 297.95 758.823 298.2 759.903 298.2ZM781.547 294.15C780.987 294.45 780.317 294.69 779.537 294.87C778.777 295.05 777.977 295.14 777.137 295.14C775.497 295.14 774.167 294.77 773.147 294.03C772.127 293.29 771.467 292.22 771.167 290.82C770.987 290 770.897 288.89 770.897 287.49V283.8H773.597V287.49C773.597 288.39 773.657 289.16 773.777 289.8C773.977 290.8 774.397 291.55 775.037 292.05C775.677 292.53 776.577 292.77 777.737 292.77C778.497 292.77 779.207 292.68 779.867 292.5C780.527 292.3 781.087 292.03 781.547 291.69V283.8H784.247V300H781.547V294.15ZM790.418 292.65C790.518 294.33 790.988 295.63 791.828 296.55C792.688 297.45 793.858 297.9 795.338 297.9C796.398 297.9 797.328 297.66 798.128 297.18C798.928 296.68 799.548 295.97 799.988 295.05L802.568 295.95C801.928 297.37 800.978 298.48 799.718 299.28C798.458 300.06 797.038 300.45 795.458 300.45C793.878 300.45 792.488 300.1 791.288 299.4C790.108 298.7 789.188 297.71 788.528 296.43C787.868 295.15 787.538 293.67 787.538 291.99C787.538 290.25 787.858 288.73 788.498 287.43C789.138 286.11 790.048 285.1 791.228 284.4C792.408 283.7 793.778 283.35 795.338 283.35C796.958 283.35 798.338 283.73 799.478 284.49C800.638 285.23 801.498 286.3 802.058 287.7C802.638 289.1 802.888 290.75 802.808 292.65H790.418ZM795.428 285.75C793.988 285.75 792.848 286.16 792.008 286.98C791.168 287.78 790.658 288.95 790.478 290.49H800.078C799.718 287.33 798.168 285.75 795.428 285.75ZM813.003 300.45C811.383 300.45 809.993 300.09 808.833 299.37C807.693 298.63 806.813 297.62 806.193 296.34C805.593 295.04 805.283 293.56 805.263 291.9C805.283 290.2 805.603 288.71 806.223 287.43C806.843 286.13 807.733 285.13 808.893 284.43C810.053 283.71 811.433 283.35 813.033 283.35C814.733 283.35 816.193 283.77 817.413 284.61C818.653 285.45 819.493 286.6 819.933 288.06L817.293 288.84C816.953 287.92 816.393 287.2 815.613 286.68C814.853 286.14 813.983 285.87 813.003 285.87C811.403 285.87 810.193 286.42 809.373 287.52C808.553 288.6 808.133 290.06 808.113 291.9C808.133 293.76 808.553 295.23 809.373 296.31C810.213 297.37 811.423 297.9 813.003 297.9C815.043 297.9 816.453 296.96 817.233 295.08L819.933 295.77C819.373 297.29 818.493 298.45 817.293 299.25C816.093 300.05 814.663 300.45 813.003 300.45ZM826.976 286.23H821.336V283.8H835.286V286.23H829.646V300H826.976V286.23ZM845.025 283.8C846.025 283.8 846.895 283.9 847.635 284.1C848.535 284.34 849.255 284.83 849.795 285.57C850.355 286.29 850.635 287.17 850.635 288.21C850.635 289.39 850.285 290.31 849.585 290.97C849.245 291.31 848.895 291.54 848.535 291.66C848.875 291.72 849.235 291.86 849.615 292.08C850.835 292.78 851.445 293.93 851.445 295.53C851.445 296.61 851.175 297.51 850.635 298.23C850.115 298.95 849.385 299.45 848.445 299.73C847.785 299.91 846.905 300 845.805 300H838.125V283.8H845.025ZM844.845 290.79C845.565 290.79 846.125 290.71 846.525 290.55C846.965 290.39 847.295 290.12 847.515 289.74C847.755 289.34 847.875 288.9 847.875 288.42C847.875 287.9 847.745 287.44 847.485 287.04C847.245 286.64 846.895 286.37 846.435 286.23C845.995 286.07 845.385 285.99 844.605 285.99H840.825V290.79H844.845ZM845.655 297.81C846.255 297.81 846.765 297.74 847.185 297.6C847.685 297.48 848.055 297.22 848.295 296.82C848.555 296.42 848.685 295.96 848.685 295.44C848.685 294.82 848.505 294.31 848.145 293.91C847.785 293.49 847.315 293.23 846.735 293.13C846.455 293.05 846.015 293.01 845.415 293.01H840.825V297.81H845.655ZM861.344 300.45C859.764 300.45 858.384 300.09 857.204 299.37C856.024 298.65 855.114 297.64 854.474 296.34C853.854 295.04 853.544 293.55 853.544 291.87C853.544 290.19 853.864 288.71 854.504 287.43C855.144 286.13 856.054 285.13 857.234 284.43C858.414 283.71 859.784 283.35 861.344 283.35C862.944 283.35 864.334 283.71 865.514 284.43C866.694 285.15 867.594 286.16 868.214 287.46C868.854 288.74 869.174 290.21 869.174 291.87C869.174 293.57 868.854 295.07 868.214 296.37C867.574 297.65 866.664 298.65 865.484 299.37C864.304 300.09 862.924 300.45 861.344 300.45ZM861.344 297.9C862.984 297.9 864.224 297.36 865.064 296.28C865.904 295.18 866.324 293.71 866.324 291.87C866.324 290.01 865.894 288.55 865.034 287.49C864.194 286.41 862.964 285.87 861.344 285.87C859.704 285.87 858.464 286.41 857.624 287.49C856.804 288.57 856.394 290.03 856.394 291.87C856.394 293.75 856.814 295.23 857.654 296.31C858.514 297.37 859.744 297.9 861.344 297.9ZM888.457 291.51C889.117 291.87 889.617 292.4 889.957 293.1C890.317 293.78 890.497 294.54 890.497 295.38C890.497 296.42 890.217 297.32 889.657 298.08C889.117 298.84 888.377 299.43 887.437 299.85C886.497 300.25 885.447 300.45 884.287 300.45C882.707 300.45 881.297 300.11 880.057 299.43C878.817 298.73 877.837 297.76 877.117 296.52L879.247 295.14C880.447 296.98 882.087 297.9 884.167 297.9C885.267 297.9 886.137 297.65 886.777 297.15C887.437 296.65 887.767 295.97 887.767 295.11C887.767 294.21 887.437 293.59 886.777 293.25C886.117 292.91 885.117 292.74 883.777 292.74H882.097V290.52H883.747C886.127 290.52 887.317 289.77 887.317 288.27C887.317 287.49 887.017 286.9 886.417 286.5C885.837 286.08 885.097 285.87 884.197 285.87C883.337 285.87 882.487 286.05 881.647 286.41C880.807 286.77 880.087 287.25 879.487 287.85L877.867 286.02C878.707 285.16 879.677 284.5 880.777 284.04C881.877 283.58 883.067 283.35 884.347 283.35C885.967 283.35 887.317 283.77 888.397 284.61C889.497 285.45 890.047 286.6 890.047 288.06C890.047 289.46 889.517 290.61 888.457 291.51ZM893.789 283.8H896.459V290.61H904.979V283.8H907.649V300H904.979V293.16H896.459V300H893.789V283.8ZM924.286 286.5C924.646 287.32 924.826 288.48 924.826 289.98V300H922.456V297.45C921.156 299.45 919.156 300.45 916.456 300.45C915.296 300.45 914.296 300.24 913.456 299.82C912.616 299.38 911.986 298.79 911.566 298.05C911.146 297.31 910.936 296.5 910.936 295.62C910.936 293.22 912.266 291.63 914.926 290.85C916.286 290.49 918.336 290.14 921.076 289.8L922.186 289.65C922.146 288.33 921.816 287.37 921.196 286.77C920.576 286.15 919.576 285.84 918.196 285.84C917.176 285.84 916.306 286.07 915.586 286.53C914.866 286.99 914.366 287.7 914.086 288.66L911.536 287.91C911.936 286.45 912.696 285.33 913.816 284.55C914.956 283.75 916.426 283.35 918.226 283.35C919.726 283.35 920.996 283.62 922.036 284.16C923.076 284.68 923.826 285.46 924.286 286.5ZM916.846 298.2C918.226 298.2 919.356 297.85 920.236 297.15C921.136 296.43 921.686 295.54 921.886 294.48C922.066 293.9 922.156 293.04 922.156 291.9C921.576 291.98 921.106 292.05 920.746 292.11C919.886 292.23 919.036 292.36 918.196 292.5C917.356 292.62 916.666 292.76 916.126 292.92C914.446 293.44 913.606 294.33 913.606 295.59C913.606 296.33 913.876 296.95 914.416 297.45C914.956 297.95 915.766 298.2 916.846 298.2ZM928.741 283.8H931.411V290.61H939.931V283.8H942.601V300H939.931V293.16H931.411V300H928.741V283.8ZM960.048 300H957.468V288.06L948.978 300H946.788V283.8H949.368V295.56L957.858 283.8H960.048V300ZM971.238 282C970.498 282 969.808 281.82 969.168 281.46C968.548 281.08 968.048 280.58 967.668 279.96C967.308 279.32 967.128 278.63 967.128 277.89H969.288C969.288 278.43 969.478 278.89 969.858 279.27C970.238 279.65 970.698 279.84 971.238 279.84C971.778 279.84 972.228 279.65 972.588 279.27C972.968 278.89 973.158 278.43 973.158 277.89H975.318C975.318 278.63 975.128 279.32 974.748 279.96C974.388 280.58 973.898 281.08 973.278 281.46C972.658 281.82 971.978 282 971.238 282ZM974.928 300V288.06L966.438 300H964.248V283.8H966.828V295.56L975.318 283.8H977.508V300H974.928ZM544 331.8C545 331.8 545.87 331.9 546.61 332.1C547.51 332.34 548.23 332.83 548.77 333.57C549.33 334.29 549.61 335.17 549.61 336.21C549.61 337.39 549.26 338.31 548.56 338.97C548.22 339.31 547.87 339.54 547.51 339.66C547.85 339.72 548.21 339.86 548.59 340.08C549.81 340.78 550.42 341.93 550.42 343.53C550.42 344.61 550.15 345.51 549.61 346.23C549.09 346.95 548.36 347.45 547.42 347.73C546.76 347.91 545.88 348 544.78 348H537.1V331.8H544ZM543.82 338.79C544.54 338.79 545.1 338.71 545.5 338.55C545.94 338.39 546.27 338.12 546.49 337.74C546.73 337.34 546.85 336.9 546.85 336.42C546.85 335.9 546.72 335.44 546.46 335.04C546.22 334.64 545.87 334.37 545.41 334.23C544.97 334.07 544.36 333.99 543.58 333.99H539.8V338.79H543.82ZM544.63 345.81C545.23 345.81 545.74 345.74 546.16 345.6C546.66 345.48 547.03 345.22 547.27 344.82C547.53 344.42 547.66 343.96 547.66 343.44C547.66 342.82 547.48 342.31 547.12 341.91C546.76 341.49 546.29 341.23 545.71 341.13C545.43 341.05 544.99 341.01 544.39 341.01H539.8V345.81H544.63ZM561.404 340.65C561.504 342.33 561.974 343.63 562.814 344.55C563.674 345.45 564.844 345.9 566.324 345.9C567.384 345.9 568.314 345.66 569.114 345.18C569.914 344.68 570.534 343.97 570.974 343.05L573.554 343.95C572.914 345.37 571.964 346.48 570.704 347.28C569.444 348.06 568.024 348.45 566.444 348.45C564.864 348.45 563.474 348.1 562.274 347.4C561.094 346.7 560.174 345.71 559.514 344.43C558.854 343.15 558.524 341.67 558.524 339.99C558.524 338.25 558.844 336.73 559.484 335.43C560.124 334.11 561.034 333.1 562.214 332.4C563.394 331.7 564.764 331.35 566.324 331.35C567.944 331.35 569.324 331.73 570.464 332.49C571.624 333.23 572.484 334.3 573.044 335.7C573.624 337.1 573.874 338.75 573.794 340.65H561.404ZM566.414 333.75C564.974 333.75 563.834 334.16 562.994 334.98C562.154 335.78 561.644 336.95 561.464 338.49H571.064C570.704 335.33 569.154 333.75 566.414 333.75ZM575.949 345.78C576.829 345.78 577.469 345.5 577.869 344.94C578.289 344.36 578.619 343.36 578.859 341.94C579.079 340.7 579.249 339.32 579.369 337.8C579.489 336.26 579.609 334.26 579.729 331.8H590.889V345.78H592.449V351.6H589.899V348H578.499V351.6H575.949V345.78ZM588.219 333.99H582.129C581.909 338.21 581.639 341.07 581.319 342.57C581.159 343.41 580.989 344.08 580.809 344.58C580.649 345.06 580.399 345.46 580.059 345.78H588.219V333.99ZM608.719 348H606.139V336.06L597.649 348H595.459V331.8H598.039V343.56L606.529 331.8H608.719V348ZM612.92 331.8H615.59V338.61H624.11V331.8H626.78V348H624.11V341.16H615.59V348H612.92V331.8ZM637.867 348.45C636.287 348.45 634.907 348.09 633.727 347.37C632.547 346.65 631.637 345.64 630.997 344.34C630.377 343.04 630.067 341.55 630.067 339.87C630.067 338.19 630.387 336.71 631.027 335.43C631.667 334.13 632.577 333.13 633.757 332.43C634.937 331.71 636.307 331.35 637.867 331.35C639.467 331.35 640.857 331.71 642.037 332.43C643.217 333.15 644.117 334.16 644.737 335.46C645.377 336.74 645.697 338.21 645.697 339.87C645.697 341.57 645.377 343.07 644.737 344.37C644.097 345.65 643.187 346.65 642.007 347.37C640.827 348.09 639.447 348.45 637.867 348.45ZM637.867 345.9C639.507 345.9 640.747 345.36 641.587 344.28C642.427 343.18 642.847 341.71 642.847 339.87C642.847 338.01 642.417 336.55 641.557 335.49C640.717 334.41 639.487 333.87 637.867 333.87C636.227 333.87 634.987 334.41 634.147 335.49C633.327 336.57 632.917 338.03 632.917 339.87C632.917 341.75 633.337 343.23 634.177 344.31C635.037 345.37 636.267 345.9 637.867 345.9ZM648.985 331.8H651.265L657.415 344.37L663.565 331.8H665.875V348H663.295V337.35L658.135 348H656.725L651.565 337.35V348H648.985V331.8ZM683.554 331.35C685.014 331.35 686.294 331.72 687.394 332.46C688.494 333.2 689.334 334.22 689.914 335.52C690.494 336.8 690.784 338.25 690.784 339.87C690.784 341.49 690.484 342.95 689.884 344.25C689.304 345.55 688.464 346.58 687.364 347.34C686.284 348.08 685.004 348.45 683.524 348.45C681.584 348.45 679.994 347.8 678.754 346.5V355.2H676.084V331.8H678.454V333.6C679.694 332.1 681.394 331.35 683.554 331.35ZM683.194 345.99C684.734 345.99 685.914 345.42 686.734 344.28C687.554 343.14 687.964 341.67 687.964 339.87C687.964 338.07 687.554 336.61 686.734 335.49C685.914 334.35 684.714 333.78 683.134 333.78C681.594 333.78 680.424 334.33 679.624 335.43C678.844 336.53 678.454 338.01 678.454 339.87C678.454 341.73 678.844 343.22 679.624 344.34C680.424 345.44 681.614 345.99 683.194 345.99ZM706.523 334.5C706.883 335.32 707.063 336.48 707.063 337.98V348H704.693V345.45C703.393 347.45 701.393 348.45 698.693 348.45C697.533 348.45 696.533 348.24 695.693 347.82C694.853 347.38 694.223 346.79 693.803 346.05C693.383 345.31 693.173 344.5 693.173 343.62C693.173 341.22 694.503 339.63 697.163 338.85C698.523 338.49 700.573 338.14 703.313 337.8L704.423 337.65C704.383 336.33 704.053 335.37 703.433 334.77C702.813 334.15 701.813 333.84 700.433 333.84C699.413 333.84 698.543 334.07 697.823 334.53C697.103 334.99 696.603 335.7 696.323 336.66L693.773 335.91C694.173 334.45 694.933 333.33 696.053 332.55C697.193 331.75 698.663 331.35 700.463 331.35C701.963 331.35 703.233 331.62 704.273 332.16C705.313 332.68 706.063 333.46 706.523 334.5ZM699.083 346.2C700.463 346.2 701.593 345.85 702.473 345.15C703.373 344.43 703.923 343.54 704.123 342.48C704.303 341.9 704.393 341.04 704.393 339.9C703.813 339.98 703.343 340.05 702.983 340.11C702.123 340.23 701.273 340.36 700.433 340.5C699.593 340.62 698.903 340.76 698.363 340.92C696.683 341.44 695.843 342.33 695.843 343.59C695.843 344.33 696.113 344.95 696.653 345.45C697.193 345.95 698.003 346.2 699.083 346.2ZM717.577 348.48C715.277 348.46 713.487 347.72 712.207 346.26C710.927 344.78 710.237 342.66 710.137 339.9C710.117 339.68 710.107 339.34 710.107 338.88C710.107 337.6 710.197 336.3 710.377 334.98C710.557 333.64 710.797 332.59 711.097 331.83C711.377 331.11 711.757 330.44 712.237 329.82C712.737 329.18 713.297 328.66 713.917 328.26C714.737 327.7 715.667 327.3 716.707 327.06C717.747 326.8 719.117 326.56 720.817 326.34C722.057 326.18 722.957 326.05 723.517 325.95L723.787 328.35C723.467 328.41 722.647 328.53 721.327 328.71C719.827 328.91 718.607 329.11 717.667 329.31C716.727 329.51 715.937 329.81 715.297 330.21C714.537 330.67 713.947 331.36 713.527 332.28C713.107 333.2 712.847 334.26 712.747 335.46C713.347 334.54 714.127 333.85 715.087 333.39C716.067 332.91 717.147 332.67 718.327 332.67C719.747 332.67 720.987 333.01 722.047 333.69C723.107 334.35 723.917 335.27 724.477 336.45C725.057 337.63 725.347 338.98 725.347 340.5C725.347 342.08 725.027 343.48 724.387 344.7C723.747 345.9 722.837 346.83 721.657 347.49C720.497 348.15 719.137 348.48 717.577 348.48ZM717.727 345.93C719.267 345.93 720.447 345.45 721.267 344.49C722.107 343.53 722.527 342.22 722.527 340.56C722.527 338.9 722.097 337.6 721.237 336.66C720.397 335.7 719.227 335.22 717.727 335.22C716.207 335.22 715.027 335.7 714.187 336.66C713.367 337.6 712.957 338.9 712.957 340.56C712.957 342.26 713.367 343.58 714.187 344.52C715.007 345.46 716.187 345.93 717.727 345.93ZM735.543 348.45C733.963 348.45 732.583 348.09 731.403 347.37C730.223 346.65 729.313 345.64 728.673 344.34C728.053 343.04 727.743 341.55 727.743 339.87C727.743 338.19 728.063 336.71 728.703 335.43C729.343 334.13 730.253 333.13 731.433 332.43C732.613 331.71 733.983 331.35 735.543 331.35C737.143 331.35 738.533 331.71 739.713 332.43C740.893 333.15 741.793 334.16 742.413 335.46C743.053 336.74 743.373 338.21 743.373 339.87C743.373 341.57 743.053 343.07 742.413 344.37C741.773 345.65 740.863 346.65 739.683 347.37C738.503 348.09 737.123 348.45 735.543 348.45ZM735.543 345.9C737.183 345.9 738.423 345.36 739.263 344.28C740.103 343.18 740.523 341.71 740.523 339.87C740.523 338.01 740.093 336.55 739.233 335.49C738.393 334.41 737.163 333.87 735.543 333.87C733.903 333.87 732.663 334.41 731.823 335.49C731.003 336.57 730.593 338.03 730.593 339.87C730.593 341.75 731.013 343.23 731.853 344.31C732.713 345.37 733.943 345.9 735.543 345.9ZM756.411 342.15C755.851 342.45 755.181 342.69 754.401 342.87C753.641 343.05 752.841 343.14 752.001 343.14C750.361 343.14 749.031 342.77 748.011 342.03C746.991 341.29 746.331 340.22 746.031 338.82C745.851 338 745.761 336.89 745.761 335.49V331.8H748.461V335.49C748.461 336.39 748.521 337.16 748.641 337.8C748.841 338.8 749.261 339.55 749.901 340.05C750.541 340.53 751.441 340.77 752.601 340.77C753.361 340.77 754.071 340.68 754.731 340.5C755.391 340.3 755.951 340.03 756.411 339.69V331.8H759.111V348H756.411V342.15ZM765.281 340.65C765.381 342.33 765.851 343.63 766.691 344.55C767.551 345.45 768.721 345.9 770.201 345.9C771.261 345.9 772.191 345.66 772.991 345.18C773.791 344.68 774.411 343.97 774.851 343.05L777.431 343.95C776.791 345.37 775.841 346.48 774.581 347.28C773.321 348.06 771.901 348.45 770.321 348.45C768.741 348.45 767.351 348.1 766.151 347.4C764.971 346.7 764.051 345.71 763.391 344.43C762.731 343.15 762.401 341.67 762.401 339.99C762.401 338.25 762.721 336.73 763.361 335.43C764.001 334.11 764.911 333.1 766.091 332.4C767.271 331.7 768.641 331.35 770.201 331.35C771.821 331.35 773.201 331.73 774.341 332.49C775.501 333.23 776.361 334.3 776.921 335.7C777.501 337.1 777.751 338.75 777.671 340.65H765.281ZM770.291 333.75C768.851 333.75 767.711 334.16 766.871 334.98C766.031 335.78 765.521 336.95 765.341 338.49H774.941C774.581 335.33 773.031 333.75 770.291 333.75ZM780.586 331.8H782.866L789.016 344.37L795.166 331.8H797.476V348H794.896V337.35L789.736 348H788.326L783.166 337.35V348H780.586V331.8ZM537.1 379.8H550.36V396H547.69V382.32H539.77V396H537.1V379.8ZM562.031 379.35C563.491 379.35 564.771 379.72 565.871 380.46C566.971 381.2 567.811 382.22 568.391 383.52C568.971 384.8 569.261 386.25 569.261 387.87C569.261 389.49 568.961 390.95 568.361 392.25C567.781 393.55 566.941 394.58 565.841 395.34C564.761 396.08 563.481 396.45 562.001 396.45C560.061 396.45 558.471 395.8 557.231 394.5V403.2H554.561V379.8H556.931V381.6C558.171 380.1 559.871 379.35 562.031 379.35ZM561.671 393.99C563.211 393.99 564.391 393.42 565.211 392.28C566.031 391.14 566.441 389.67 566.441 387.87C566.441 386.07 566.031 384.61 565.211 383.49C564.391 382.35 563.191 381.78 561.611 381.78C560.071 381.78 558.901 382.33 558.101 383.43C557.321 384.53 556.931 386.01 556.931 387.87C556.931 389.73 557.321 391.22 558.101 392.34C558.901 393.44 560.091 393.99 561.671 393.99ZM579.449 396.45C577.869 396.45 576.489 396.09 575.309 395.37C574.129 394.65 573.219 393.64 572.579 392.34C571.959 391.04 571.649 389.55 571.649 387.87C571.649 386.19 571.969 384.71 572.609 383.43C573.249 382.13 574.159 381.13 575.339 380.43C576.519 379.71 577.889 379.35 579.449 379.35C581.049 379.35 582.439 379.71 583.619 380.43C584.799 381.15 585.699 382.16 586.319 383.46C586.959 384.74 587.279 386.21 587.279 387.87C587.279 389.57 586.959 391.07 586.319 392.37C585.679 393.65 584.769 394.65 583.589 395.37C582.409 396.09 581.029 396.45 579.449 396.45ZM579.449 393.9C581.089 393.9 582.329 393.36 583.169 392.28C584.009 391.18 584.429 389.71 584.429 387.87C584.429 386.01 583.999 384.55 583.139 383.49C582.299 382.41 581.069 381.87 579.449 381.87C577.809 381.87 576.569 382.41 575.729 383.49C574.909 384.57 574.499 386.03 574.499 387.87C574.499 389.75 574.919 391.23 575.759 392.31C576.619 393.37 577.849 393.9 579.449 393.9ZM597.407 396.45C595.787 396.45 594.397 396.09 593.237 395.37C592.097 394.63 591.217 393.62 590.597 392.34C589.997 391.04 589.687 389.56 589.667 387.9C589.687 386.2 590.007 384.71 590.627 383.43C591.247 382.13 592.137 381.13 593.297 380.43C594.457 379.71 595.837 379.35 597.437 379.35C599.137 379.35 600.597 379.77 601.817 380.61C603.057 381.45 603.897 382.6 604.337 384.06L601.697 384.84C601.357 383.92 600.797 383.2 600.017 382.68C599.257 382.14 598.387 381.87 597.407 381.87C595.807 381.87 594.597 382.42 593.777 383.52C592.957 384.6 592.537 386.06 592.517 387.9C592.537 389.76 592.957 391.23 593.777 392.31C594.617 393.37 595.827 393.9 597.407 393.9C599.447 393.9 600.857 392.96 601.637 391.08L604.337 391.77C603.777 393.29 602.897 394.45 601.697 395.25C600.497 396.05 599.067 396.45 597.407 396.45ZM611.38 382.23H605.74V379.8H619.69V382.23H614.05V396H611.38V382.23ZM630 379.35C631.46 379.35 632.74 379.72 633.84 380.46C634.94 381.2 635.78 382.22 636.36 383.52C636.94 384.8 637.23 386.25 637.23 387.87C637.23 389.49 636.93 390.95 636.33 392.25C635.75 393.55 634.91 394.58 633.81 395.34C632.73 396.08 631.45 396.45 629.97 396.45C628.03 396.45 626.44 395.8 625.2 394.5V403.2H622.53V379.8H624.9V381.6C626.14 380.1 627.84 379.35 630 379.35ZM629.64 393.99C631.18 393.99 632.36 393.42 633.18 392.28C634 391.14 634.41 389.67 634.41 387.87C634.41 386.07 634 384.61 633.18 383.49C632.36 382.35 631.16 381.78 629.58 381.78C628.04 381.78 626.87 382.33 626.07 383.43C625.29 384.53 624.9 386.01 624.9 387.87C624.9 389.73 625.29 391.22 626.07 392.34C626.87 393.44 628.06 393.99 629.64 393.99ZM652.968 382.5C653.328 383.32 653.508 384.48 653.508 385.98V396H651.138V393.45C649.838 395.45 647.838 396.45 645.138 396.45C643.978 396.45 642.978 396.24 642.138 395.82C641.298 395.38 640.668 394.79 640.248 394.05C639.828 393.31 639.618 392.5 639.618 391.62C639.618 389.22 640.948 387.63 643.608 386.85C644.968 386.49 647.018 386.14 649.758 385.8L650.868 385.65C650.828 384.33 650.498 383.37 649.878 382.77C649.258 382.15 648.258 381.84 646.878 381.84C645.858 381.84 644.988 382.07 644.268 382.53C643.548 382.99 643.048 383.7 642.768 384.66L640.218 383.91C640.618 382.45 641.378 381.33 642.498 380.55C643.638 379.75 645.108 379.35 646.908 379.35C648.408 379.35 649.678 379.62 650.718 380.16C651.758 380.68 652.508 381.46 652.968 382.5ZM645.528 394.2C646.908 394.2 648.038 393.85 648.918 393.15C649.818 392.43 650.368 391.54 650.568 390.48C650.748 389.9 650.838 389.04 650.838 387.9C650.258 387.98 649.788 388.05 649.428 388.11C648.568 388.23 647.718 388.36 646.878 388.5C646.038 388.62 645.348 388.76 644.808 388.92C643.128 389.44 642.288 390.33 642.288 391.59C642.288 392.33 642.558 392.95 643.098 393.45C643.638 393.95 644.448 394.2 645.528 394.2ZM657.422 379.8H660.092V386.61H668.612V379.8H671.282V396H668.612V389.16H660.092V396H657.422V379.8ZM682.309 396.45C680.689 396.45 679.299 396.09 678.139 395.37C676.999 394.63 676.119 393.62 675.499 392.34C674.899 391.04 674.589 389.56 674.569 387.9C674.589 386.2 674.909 384.71 675.529 383.43C676.149 382.13 677.039 381.13 678.199 380.43C679.359 379.71 680.739 379.35 682.339 379.35C684.039 379.35 685.499 379.77 686.719 380.61C687.959 381.45 688.799 382.6 689.239 384.06L686.599 384.84C686.259 383.92 685.699 383.2 684.919 382.68C684.159 382.14 683.289 381.87 682.309 381.87C680.709 381.87 679.499 382.42 678.679 383.52C677.859 384.6 677.439 386.06 677.419 387.9C677.439 389.76 677.859 391.23 678.679 392.31C679.519 393.37 680.729 393.9 682.309 393.9C684.349 393.9 685.759 392.96 686.539 391.08L689.239 391.77C688.679 393.29 687.799 394.45 686.599 395.25C685.399 396.05 683.969 396.45 682.309 396.45ZM696.283 382.23H690.643V379.8H704.593V382.23H698.953V396H696.283V382.23ZM714.332 379.8C715.332 379.8 716.202 379.9 716.942 380.1C717.842 380.34 718.562 380.83 719.102 381.57C719.662 382.29 719.942 383.17 719.942 384.21C719.942 385.39 719.592 386.31 718.892 386.97C718.552 387.31 718.202 387.54 717.842 387.66C718.182 387.72 718.542 387.86 718.922 388.08C720.142 388.78 720.752 389.93 720.752 391.53C720.752 392.61 720.482 393.51 719.942 394.23C719.422 394.95 718.692 395.45 717.752 395.73C717.092 395.91 716.212 396 715.112 396H707.432V379.8H714.332ZM714.152 386.79C714.872 386.79 715.432 386.71 715.832 386.55C716.272 386.39 716.602 386.12 716.822 385.74C717.062 385.34 717.182 384.9 717.182 384.42C717.182 383.9 717.052 383.44 716.792 383.04C716.552 382.64 716.202 382.37 715.742 382.23C715.302 382.07 714.692 381.99 713.912 381.99H710.132V386.79H714.152ZM714.962 393.81C715.562 393.81 716.072 393.74 716.492 393.6C716.992 393.48 717.362 393.22 717.602 392.82C717.862 392.42 717.992 391.96 717.992 391.44C717.992 390.82 717.812 390.31 717.452 389.91C717.092 389.49 716.622 389.23 716.042 389.13C715.762 389.05 715.322 389.01 714.722 389.01H710.132V393.81H714.962ZM725.73 388.65C725.83 390.33 726.3 391.63 727.14 392.55C728 393.45 729.17 393.9 730.65 393.9C731.71 393.9 732.64 393.66 733.44 393.18C734.24 392.68 734.86 391.97 735.3 391.05L737.88 391.95C737.24 393.37 736.29 394.48 735.03 395.28C733.77 396.06 732.35 396.45 730.77 396.45C729.19 396.45 727.8 396.1 726.6 395.4C725.42 394.7 724.5 393.71 723.84 392.43C723.18 391.15 722.85 389.67 722.85 387.99C722.85 386.25 723.17 384.73 723.81 383.43C724.45 382.11 725.36 381.1 726.54 380.4C727.72 379.7 729.09 379.35 730.65 379.35C732.27 379.35 733.65 379.73 734.79 380.49C735.95 381.23 736.81 382.3 737.37 383.7C737.95 385.1 738.2 386.75 738.12 388.65H725.73ZM730.74 381.75C729.3 381.75 728.16 382.16 727.32 382.98C726.48 383.78 725.97 384.95 725.79 386.49H735.39C735.03 383.33 733.48 381.75 730.74 381.75Z" fill="#16191F"/>
<rect x="608.715" width="368" height="70" rx="35" fill="#ECEDF1" fill-opacity="0.74"/>
<rect x="715.715" width="261" height="70" rx="35" fill="#2365F3"/>
<path d="M752.611 39.18C752.731 41.196 753.295 42.756 754.303 43.86C755.335 44.94 756.739 45.48 758.515 45.48C759.787 45.48 760.903 45.192 761.863 44.616C762.823 44.016 763.567 43.164 764.095 42.06L767.191 43.14C766.423 44.844 765.283 46.176 763.771 47.136C762.259 48.072 760.555 48.54 758.659 48.54C756.763 48.54 755.095 48.12 753.655 47.28C752.239 46.44 751.135 45.252 750.343 43.716C749.551 42.18 749.155 40.404 749.155 38.388C749.155 36.3 749.539 34.476 750.307 32.916C751.075 31.332 752.167 30.12 753.583 29.28C754.999 28.44 756.643 28.02 758.515 28.02C760.459 28.02 762.115 28.476 763.483 29.388C764.875 30.276 765.907 31.56 766.579 33.24C767.275 34.92 767.575 36.9 767.479 39.18H752.611ZM758.623 30.9C756.895 30.9 755.527 31.392 754.519 32.376C753.511 33.336 752.899 34.74 752.683 36.588H764.203C763.771 32.796 761.911 30.9 758.623 30.9Z" fill="white"/>
<g clip-path="url(#clip0)">
<path d="M778.715 33.5161C778.715 34.9032 777.625 36 776.247 36C774.837 36 773.715 34.9032 773.715 33.5161C773.715 32.129 774.837 31 776.247 31C777.625 31 778.715 32.129 778.715 33.5161Z" fill="white"/>
<path d="M776.247 45C777.625 45 778.715 43.9032 778.715 42.5161C778.715 41.129 777.625 40 776.247 40C774.837 40 773.715 41.129 773.715 42.5161C773.715 43.9032 774.837 45 776.247 45Z" fill="white"/>
</g>
<path d="M793.443 48.54C791.499 48.54 789.831 48.108 788.439 47.244C787.071 46.356 786.015 45.144 785.271 43.608C784.551 42.048 784.179 40.272 784.155 38.28C784.179 36.24 784.563 34.452 785.307 32.916C786.051 31.356 787.119 30.156 788.511 29.316C789.903 28.452 791.559 28.02 793.479 28.02C795.519 28.02 797.271 28.524 798.735 29.532C800.223 30.54 801.231 31.92 801.759 33.672L798.591 34.608C798.183 33.504 797.511 32.64 796.575 32.016C795.663 31.368 794.619 31.044 793.443 31.044C791.523 31.044 790.071 31.704 789.087 33.024C788.103 34.32 787.599 36.072 787.575 38.28C787.599 40.512 788.103 42.276 789.087 43.572C790.095 44.844 791.547 45.48 793.443 45.48C795.891 45.48 797.583 44.352 798.519 42.096L801.759 42.924C801.087 44.748 800.031 46.14 798.591 47.1C797.151 48.06 795.435 48.54 793.443 48.54ZM813.167 48.54C811.271 48.54 809.615 48.108 808.199 47.244C806.783 46.38 805.691 45.168 804.923 43.608C804.179 42.048 803.807 40.26 803.807 38.244C803.807 36.228 804.191 34.452 804.959 32.916C805.727 31.356 806.819 30.156 808.235 29.316C809.651 28.452 811.295 28.02 813.167 28.02C815.087 28.02 816.755 28.452 818.171 29.316C819.587 30.18 820.667 31.392 821.411 32.952C822.179 34.488 822.563 36.252 822.563 38.244C822.563 40.284 822.179 42.084 821.411 43.644C820.643 45.18 819.551 46.38 818.135 47.244C816.719 48.108 815.063 48.54 813.167 48.54ZM813.167 45.48C815.135 45.48 816.623 44.832 817.631 43.536C818.639 42.216 819.143 40.452 819.143 38.244C819.143 36.012 818.627 34.26 817.595 32.988C816.587 31.692 815.111 31.044 813.167 31.044C811.199 31.044 809.711 31.692 808.703 32.988C807.719 34.284 807.227 36.036 807.227 38.244C807.227 40.5 807.731 42.276 808.739 43.572C809.771 44.844 811.247 45.48 813.167 45.48ZM838.039 37.812C838.831 38.244 839.431 38.88 839.839 39.72C840.271 40.536 840.487 41.448 840.487 42.456C840.487 43.704 840.151 44.784 839.479 45.696C838.831 46.608 837.943 47.316 836.815 47.82C835.687 48.3 834.427 48.54 833.035 48.54C831.139 48.54 829.447 48.132 827.959 47.316C826.471 46.476 825.295 45.312 824.431 43.824L826.987 42.168C828.427 44.376 830.395 45.48 832.891 45.48C834.211 45.48 835.255 45.18 836.023 44.58C836.815 43.98 837.211 43.164 837.211 42.132C837.211 41.052 836.815 40.308 836.023 39.9C835.231 39.492 834.031 39.288 832.423 39.288H830.407V36.624H832.387C835.243 36.624 836.671 35.724 836.671 33.924C836.671 32.988 836.311 32.28 835.591 31.8C834.895 31.296 834.007 31.044 832.927 31.044C831.895 31.044 830.875 31.26 829.867 31.692C828.859 32.124 827.995 32.7 827.275 33.42L825.331 31.224C826.339 30.192 827.503 29.4 828.823 28.848C830.143 28.296 831.571 28.02 833.107 28.02C835.051 28.02 836.671 28.524 837.967 29.532C839.287 30.54 839.947 31.92 839.947 33.672C839.947 35.352 839.311 36.732 838.039 37.812ZM842.998 45.336C844.054 45.336 844.822 45 845.302 44.328C845.806 43.632 846.202 42.432 846.49 40.728C846.754 39.24 846.958 37.584 847.102 35.76C847.246 33.912 847.39 31.512 847.534 28.56H860.926V45.336H862.798V52.32H859.738V48H846.058V52.32H842.998V45.336ZM857.722 31.188H850.414C850.15 36.252 849.826 39.684 849.442 41.484C849.25 42.492 849.046 43.296 848.83 43.896C848.638 44.472 848.338 44.952 847.93 45.336H857.722V31.188ZM880.261 31.8C880.693 32.784 880.909 34.176 880.909 35.976V48L878.065 48V44.94C876.505 47.34 874.105 48.54 870.865 48.54C869.473 48.54 868.273 48.288 867.265 47.784C866.257 47.256 865.501 46.548 864.997 45.66C864.493 44.772 864.241 43.8 864.241 42.744C864.241 39.864 865.837 37.956 869.029 37.02C870.661 36.588 873.121 36.168 876.409 35.76L877.741 35.58C877.693 33.996 877.297 32.844 876.553 32.124C875.809 31.38 874.609 31.008 872.953 31.008C871.729 31.008 870.685 31.284 869.821 31.836C868.957 32.388 868.357 33.24 868.021 34.392L864.961 33.492C865.441 31.74 866.353 30.396 867.697 29.46C869.065 28.5 870.829 28.02 872.989 28.02C874.789 28.02 876.313 28.344 877.561 28.992C878.809 29.616 879.709 30.552 880.261 31.8ZM871.333 45.84C872.989 45.84 874.345 45.42 875.401 44.58C876.481 43.716 877.141 42.648 877.381 41.376C877.597 40.68 877.705 39.648 877.705 38.28C877.009 38.376 876.445 38.46 876.013 38.532C874.981 38.676 873.961 38.832 872.953 39C871.945 39.144 871.117 39.312 870.469 39.504C868.453 40.128 867.445 41.196 867.445 42.708C867.445 43.596 867.769 44.34 868.417 44.94C869.065 45.54 870.037 45.84 871.333 45.84ZM893.886 28.56C895.086 28.56 896.13 28.68 897.018 28.92C898.098 29.208 898.962 29.796 899.61 30.684C900.282 31.548 900.618 32.604 900.618 33.852C900.618 35.268 900.198 36.372 899.358 37.164C898.95 37.572 898.53 37.848 898.098 37.992C898.506 38.064 898.938 38.232 899.394 38.496C900.858 39.336 901.59 40.716 901.59 42.636C901.59 43.932 901.266 45.012 900.618 45.876C899.994 46.74 899.118 47.34 897.99 47.676C897.198 47.892 896.142 48 894.822 48H885.606V28.56H893.886ZM893.67 36.948C894.534 36.948 895.206 36.852 895.686 36.66C896.214 36.468 896.61 36.144 896.874 35.688C897.162 35.208 897.306 34.68 897.306 34.104C897.306 33.48 897.15 32.928 896.838 32.448C896.55 31.968 896.13 31.644 895.578 31.476C895.05 31.284 894.318 31.188 893.382 31.188H888.846V36.948H893.67ZM894.642 45.372C895.362 45.372 895.974 45.288 896.478 45.12C897.078 44.976 897.522 44.664 897.81 44.184C898.122 43.704 898.278 43.152 898.278 42.528C898.278 41.784 898.062 41.172 897.63 40.692C897.198 40.188 896.634 39.876 895.938 39.756C895.602 39.66 895.074 39.612 894.354 39.612H888.846V45.372H894.642ZM920.128 31.8C920.56 32.784 920.776 34.176 920.776 35.976V48H917.932V44.94C916.372 47.34 913.972 48.54 910.732 48.54C909.34 48.54 908.14 48.288 907.132 47.784C906.124 47.256 905.368 46.548 904.864 45.66C904.36 44.772 904.108 43.8 904.108 42.744C904.108 39.864 905.704 37.956 908.896 37.02C910.528 36.588 912.988 36.168 916.276 35.76L917.608 35.58C917.56 33.996 917.164 32.844 916.42 32.124C915.676 31.38 914.476 31.008 912.82 31.008C911.596 31.008 910.552 31.284 909.688 31.836C908.824 32.388 908.224 33.24 907.888 34.392L904.828 33.492C905.308 31.74 906.22 30.396 907.564 29.46C908.932 28.5 910.696 28.02 912.856 28.02C914.656 28.02 916.18 28.344 917.428 28.992C918.676 29.616 919.576 30.552 920.128 31.8ZM911.2 45.84C912.856 45.84 914.212 45.42 915.268 44.58C916.348 43.716 917.008 42.648 917.248 41.376C917.464 40.68 917.572 39.648 917.572 38.28C916.876 38.376 916.312 38.46 915.88 38.532C914.848 38.676 913.828 38.832 912.82 39C911.812 39.144 910.984 39.312 910.336 39.504C908.32 40.128 907.312 41.196 907.312 42.708C907.312 43.596 907.636 44.34 908.284 44.94C908.932 45.54 909.904 45.84 911.2 45.84ZM933.861 26.4C932.973 26.4 932.145 26.184 931.377 25.752C930.633 25.296 930.033 24.696 929.577 23.952C929.145 23.184 928.929 22.356 928.929 21.468H931.521C931.521 22.116 931.749 22.668 932.205 23.124C932.661 23.58 933.213 23.808 933.861 23.808C934.509 23.808 935.049 23.58 935.481 23.124C935.937 22.668 936.165 22.116 936.165 21.468H938.757C938.757 22.356 938.529 23.184 938.073 23.952C937.641 24.696 937.053 25.296 936.309 25.752C935.565 26.184 934.749 26.4 933.861 26.4ZM938.289 48V33.672L928.101 48H925.473V28.56H928.569V42.672L938.757 28.56H941.385V48H938.289Z" fill="white"/>
<rect x="428.715" y="498" width="391" height="68" rx="34" fill="#ECEDF1" fill-opacity="0.74"/>
<rect x="595.715" y="497" width="244" height="70" rx="35" fill="#F6C142"/>
<path d="M632.611 536.18C632.731 538.196 633.295 539.756 634.303 540.86C635.335 541.94 636.739 542.48 638.515 542.48C639.787 542.48 640.903 542.192 641.863 541.616C642.823 541.016 643.567 540.164 644.095 539.06L647.191 540.14C646.423 541.844 645.283 543.176 643.771 544.136C642.259 545.072 640.555 545.54 638.659 545.54C636.763 545.54 635.095 545.12 633.655 544.28C632.239 543.44 631.135 542.252 630.343 540.716C629.551 539.18 629.155 537.404 629.155 535.388C629.155 533.3 629.539 531.476 630.307 529.916C631.075 528.332 632.167 527.12 633.583 526.28C634.999 525.44 636.643 525.02 638.515 525.02C640.459 525.02 642.115 525.476 643.483 526.388C644.875 527.276 645.907 528.56 646.579 530.24C647.275 531.92 647.575 533.9 647.479 536.18H632.611ZM638.623 527.9C636.895 527.9 635.527 528.392 634.519 529.376C633.511 530.336 632.899 531.74 632.683 533.588H644.203C643.771 529.796 641.911 527.9 638.623 527.9Z" fill="white"/>
<g clip-path="url(#clip1)">
<path d="M658.715 530.516C658.715 531.903 657.625 533 656.247 533C654.837 533 653.715 531.903 653.715 530.516C653.715 529.129 654.837 528 656.247 528C657.625 528 658.715 529.129 658.715 530.516Z" fill="white"/>
<path d="M656.247 542C657.625 542 658.715 540.903 658.715 539.516C658.715 538.129 657.625 537 656.247 537C654.837 537 653.715 538.129 653.715 539.516C653.715 540.903 654.837 542 656.247 542Z" fill="white"/>
</g>
<path d="M665.235 525.56H681.147V545H677.943V528.584H668.439V545H665.235V525.56ZM694.468 545.54C692.572 545.54 690.916 545.108 689.5 544.244C688.084 543.38 686.992 542.168 686.224 540.608C685.48 539.048 685.108 537.26 685.108 535.244C685.108 533.228 685.492 531.452 686.26 529.916C687.028 528.356 688.12 527.156 689.536 526.316C690.952 525.452 692.596 525.02 694.468 525.02C696.388 525.02 698.056 525.452 699.472 526.316C700.888 527.18 701.968 528.392 702.712 529.952C703.48 531.488 703.864 533.252 703.864 535.244C703.864 537.284 703.48 539.084 702.712 540.644C701.944 542.18 700.852 543.38 699.436 544.244C698.02 545.108 696.364 545.54 694.468 545.54ZM694.468 542.48C696.436 542.48 697.924 541.832 698.932 540.536C699.94 539.216 700.444 537.452 700.444 535.244C700.444 533.012 699.928 531.26 698.896 529.988C697.888 528.692 696.412 528.044 694.468 528.044C692.5 528.044 691.012 528.692 690.004 529.988C689.02 531.284 688.528 533.036 688.528 535.244C688.528 537.5 689.032 539.276 690.04 540.572C691.072 541.844 692.548 542.48 694.468 542.48ZM706.009 542.228C706.201 542.276 706.465 542.3 706.801 542.3C707.497 542.3 707.977 542.084 708.241 541.652C708.529 541.196 708.769 540.44 708.961 539.384C709.465 536.576 709.897 531.968 710.257 525.56H723.865V545H720.661V528.584H713.173C712.741 534.44 712.297 538.544 711.841 540.896C711.553 542.408 711.121 543.512 710.545 544.208C709.969 544.88 709.105 545.216 707.953 545.216C707.377 545.216 706.729 545.144 706.009 545V542.228ZM742.043 525.56H745.319L734.735 553.64H731.603L734.807 544.964L726.923 525.56H730.307L736.355 540.824L742.043 525.56ZM759.974 537.98C759.302 538.34 758.498 538.628 757.562 538.844C756.65 539.06 755.69 539.168 754.682 539.168C752.714 539.168 751.118 538.724 749.894 537.836C748.67 536.948 747.878 535.664 747.518 533.984C747.302 533 747.194 531.668 747.194 529.988V525.56H750.434V529.988C750.434 531.068 750.506 531.992 750.65 532.76C750.89 533.96 751.394 534.86 752.162 535.46C752.93 536.036 754.01 536.324 755.402 536.324C756.314 536.324 757.166 536.216 757.958 536C758.75 535.76 759.422 535.436 759.974 535.028V525.56H763.214V545H759.974V537.98ZM783.183 528.8C783.615 529.784 783.831 531.176 783.831 532.976V545H780.987V541.94C779.427 544.34 777.027 545.54 773.787 545.54C772.395 545.54 771.195 545.288 770.187 544.784C769.179 544.256 768.423 543.548 767.919 542.66C767.415 541.772 767.163 540.8 767.163 539.744C767.163 536.864 768.759 534.956 771.951 534.02C773.583 533.588 776.043 533.168 779.331 532.76L780.663 532.58C780.615 530.996 780.219 529.844 779.475 529.124C778.731 528.38 777.531 528.008 775.875 528.008C774.651 528.008 773.607 528.284 772.743 528.836C771.879 529.388 771.279 530.24 770.943 531.392L767.883 530.492C768.363 528.74 769.275 527.396 770.619 526.46C771.987 525.5 773.751 525.02 775.911 525.02C777.711 525.02 779.235 525.344 780.483 525.992C781.731 526.616 782.631 527.552 783.183 528.8ZM774.255 542.84C775.911 542.84 777.267 542.42 778.323 541.58C779.403 540.716 780.063 539.648 780.303 538.376C780.519 537.68 780.627 536.648 780.627 535.28C779.931 535.376 779.367 535.46 778.935 535.532C777.903 535.676 776.883 535.832 775.875 536C774.867 536.144 774.039 536.312 773.391 536.504C771.375 537.128 770.367 538.196 770.367 539.708C770.367 540.596 770.691 541.34 771.339 541.94C771.987 542.54 772.959 542.84 774.255 542.84ZM796.916 523.4C796.028 523.4 795.2 523.184 794.432 522.752C793.688 522.296 793.088 521.696 792.632 520.952C792.2 520.184 791.984 519.356 791.984 518.468H794.576C794.576 519.116 794.804 519.668 795.26 520.124C795.716 520.58 796.268 520.808 796.916 520.808C797.564 520.808 798.104 520.58 798.536 520.124C798.992 519.668 799.22 519.116 799.22 518.468H801.812C801.812 519.356 801.584 520.184 801.128 520.952C800.696 521.696 800.108 522.296 799.364 522.752C798.62 523.184 797.804 523.4 796.916 523.4ZM801.344 545V530.672L791.156 545H788.528V525.56H791.624V539.672L801.812 525.56H804.44V545H801.344Z" fill="white"/>
<rect y="204" width="399" height="68" rx="34" fill="#ECEDF1" fill-opacity="0.74"/>
<rect y="204" width="241" height="70" rx="35" fill="#F86936"/>
<path d="M36.896 243.18C37.016 245.196 37.58 246.756 38.588 247.86C39.62 248.94 41.024 249.48 42.8 249.48C44.072 249.48 45.188 249.192 46.148 248.616C47.108 248.016 47.852 247.164 48.38 246.06L51.476 247.14C50.708 248.844 49.568 250.176 48.056 251.136C46.544 252.072 44.84 252.54 42.944 252.54C41.048 252.54 39.38 252.12 37.94 251.28C36.524 250.44 35.42 249.252 34.628 247.716C33.836 246.18 33.44 244.404 33.44 242.388C33.44 240.3 33.824 238.476 34.592 236.916C35.36 235.332 36.452 234.12 37.868 233.28C39.284 232.44 40.928 232.02 42.8 232.02C44.744 232.02 46.4 232.476 47.768 233.388C49.16 234.276 50.192 235.56 50.864 237.24C51.56 238.92 51.86 240.9 51.764 243.18H36.896ZM42.908 234.9C41.18 234.9 39.812 235.392 38.804 236.376C37.796 237.336 37.184 238.74 36.968 240.588H48.488C48.056 236.796 46.196 234.9 42.908 234.9Z" fill="white"/>
<path d="M63 237.516C63 238.903 61.9103 240 60.5321 240C59.1218 240 58 238.903 58 237.516C58 236.129 59.1218 235 60.5321 235C61.9103 235 63 236.129 63 237.516Z" fill="white"/>
<path d="M60.5321 249C61.9103 249 63 247.903 63 246.516C63 245.129 61.9103 244 60.5321 244C59.1218 244 58 245.129 58 246.516C58 247.903 59.1218 249 60.5321 249Z" fill="white"/>
<path d="M77.8 252.54C75.904 252.54 74.248 252.108 72.832 251.244C71.416 250.38 70.324 249.168 69.556 247.608C68.812 246.048 68.44 244.26 68.44 242.244C68.44 240.228 68.824 238.452 69.592 236.916C70.36 235.356 71.452 234.156 72.868 233.316C74.284 232.452 75.928 232.02 77.8 232.02C79.72 232.02 81.388 232.452 82.804 233.316C84.22 234.18 85.3 235.392 86.044 236.952C86.812 238.488 87.196 240.252 87.196 242.244C87.196 244.284 86.812 246.084 86.044 247.644C85.276 249.18 84.184 250.38 82.768 251.244C81.352 252.108 79.696 252.54 77.8 252.54ZM77.8 249.48C79.768 249.48 81.256 248.832 82.264 247.536C83.272 246.216 83.776 244.452 83.776 242.244C83.776 240.012 83.26 238.26 82.228 236.988C81.22 235.692 79.744 235.044 77.8 235.044C75.832 235.044 74.344 235.692 73.336 236.988C72.352 238.284 71.86 240.036 71.86 242.244C71.86 244.5 72.364 246.276 73.372 247.572C74.404 248.844 75.88 249.48 77.8 249.48ZM95.8321 235.476H89.0641V232.56H105.804V235.476H99.0361V252H95.8321V235.476ZM107.42 249.336C108.476 249.336 109.244 249 109.724 248.328C110.228 247.632 110.624 246.432 110.912 244.728C111.176 243.24 111.38 241.584 111.524 239.76C111.668 237.912 111.812 235.512 111.956 232.56H125.348V249.336H127.22V256.32H124.16V252H110.48V256.32H107.42V249.336ZM122.144 235.188H114.836C114.572 240.252 114.248 243.684 113.864 245.484C113.672 246.492 113.468 247.296 113.252 247.896C113.06 248.472 112.76 248.952 112.352 249.336H122.144V235.188ZM144.683 235.8C145.115 236.784 145.331 238.176 145.331 239.976V252H142.487V248.94C140.927 251.34 138.527 252.54 135.287 252.54C133.895 252.54 132.695 252.288 131.687 251.784C130.679 251.256 129.923 250.548 129.419 249.66C128.915 248.772 128.663 247.8 128.663 246.744C128.663 243.864 130.259 241.956 133.451 241.02C135.083 240.588 137.543 240.168 140.831 239.76L142.163 239.58C142.115 237.996 141.719 236.844 140.975 236.124C140.231 235.38 139.031 235.008 137.375 235.008C136.151 235.008 135.107 235.284 134.243 235.836C133.379 236.388 132.779 237.24 132.443 238.392L129.383 237.492C129.863 235.74 130.775 234.396 132.119 233.46C133.487 232.5 135.251 232.02 137.411 232.02C139.211 232.02 140.735 232.344 141.983 232.992C143.231 233.616 144.131 234.552 144.683 235.8ZM135.755 249.84C137.411 249.84 138.767 249.42 139.823 248.58C140.903 247.716 141.563 246.648 141.803 245.376C142.019 244.68 142.127 243.648 142.127 242.28C141.431 242.376 140.867 242.46 140.435 242.532C139.403 242.676 138.383 242.832 137.375 243C136.367 243.144 135.539 243.312 134.891 243.504C132.875 244.128 131.867 245.196 131.867 246.708C131.867 247.596 132.191 248.34 132.839 248.94C133.487 249.54 134.459 249.84 135.755 249.84ZM158.308 232.56C159.508 232.56 160.552 232.68 161.44 232.92C162.52 233.208 163.384 233.796 164.032 234.684C164.704 235.548 165.04 236.604 165.04 237.852C165.04 239.268 164.62 240.372 163.78 241.164C163.372 241.572 162.952 241.848 162.52 241.992C162.928 242.064 163.36 242.232 163.816 242.496C165.28 243.336 166.012 244.716 166.012 246.636C166.012 247.932 165.688 249.012 165.04 249.876C164.416 250.74 163.54 251.34 162.412 251.676C161.62 251.892 160.564 252 159.244 252H150.028V232.56H158.308ZM158.092 240.948C158.956 240.948 159.628 240.852 160.108 240.66C160.636 240.468 161.032 240.144 161.296 239.688C161.584 239.208 161.728 238.68 161.728 238.104C161.728 237.48 161.572 236.928 161.26 236.448C160.972 235.968 160.552 235.644 160 235.476C159.472 235.284 158.74 235.188 157.804 235.188H153.268V240.948H158.092ZM159.064 249.372C159.784 249.372 160.396 249.288 160.9 249.12C161.5 248.976 161.944 248.664 162.232 248.184C162.544 247.704 162.7 247.152 162.7 246.528C162.7 245.784 162.484 245.172 162.052 244.692C161.62 244.188 161.056 243.876 160.36 243.756C160.024 243.66 159.496 243.612 158.776 243.612H153.268V249.372H159.064ZM184.55 235.8C184.982 236.784 185.198 238.176 185.198 239.976V252H182.354V248.94C180.794 251.34 178.394 252.54 175.154 252.54C173.762 252.54 172.562 252.288 171.554 251.784C170.546 251.256 169.79 250.548 169.286 249.66C168.782 248.772 168.53 247.8 168.53 246.744C168.53 243.864 170.126 241.956 173.318 241.02C174.95 240.588 177.41 240.168 180.698 239.76L182.03 239.58C181.982 237.996 181.586 236.844 180.842 236.124C180.098 235.38 178.898 235.008 177.242 235.008C176.018 235.008 174.974 235.284 174.11 235.836C173.246 236.388 172.646 237.24 172.31 238.392L169.25 237.492C169.73 235.74 170.642 234.396 171.986 233.46C173.354 232.5 175.118 232.02 177.278 232.02C179.078 232.02 180.602 232.344 181.85 232.992C183.098 233.616 183.998 234.552 184.55 235.8ZM175.622 249.84C177.278 249.84 178.634 249.42 179.69 248.58C180.77 247.716 181.43 246.648 181.67 245.376C181.886 244.68 181.994 243.648 181.994 242.28C181.298 242.376 180.734 242.46 180.302 242.532C179.27 242.676 178.25 242.832 177.242 243C176.234 243.144 175.406 243.312 174.758 243.504C172.742 244.128 171.734 245.196 171.734 246.708C171.734 247.596 172.058 248.34 172.706 248.94C173.354 249.54 174.326 249.84 175.622 249.84ZM198.283 230.4C197.395 230.4 196.567 230.184 195.799 229.752C195.055 229.296 194.455 228.696 193.999 227.952C193.567 227.184 193.351 226.356 193.351 225.468H195.943C195.943 226.116 196.171 226.668 196.627 227.124C197.083 227.58 197.635 227.808 198.283 227.808C198.931 227.808 199.471 227.58 199.903 227.124C200.359 226.668 200.587 226.116 200.587 225.468H203.179C203.179 226.356 202.951 227.184 202.495 227.952C202.063 228.696 201.475 229.296 200.731 229.752C199.987 230.184 199.171 230.4 198.283 230.4ZM202.711 252V237.672L192.523 252H189.895V232.56H192.991V246.672L203.179 232.56H205.807V252H202.711Z" fill="white"/>
<defs>
<clipPath id="clip0">
<rect width="5" height="48" fill="white" transform="translate(773.715 14)"/>
</clipPath>
<clipPath id="clip1">
<rect width="5" height="48" fill="white" transform="translate(653.715 511)"/>
</clipPath>
</defs>
</svg>
