<svg width="48" height="48" viewBox="0 0 48 48" fill="none" xmlns="http://www.w3.org/2000/svg">
<path d="M0 18.1818C0 8.14028 8.14028 0 18.1818 0H29.8182C39.8597 0 48 8.14028 48 18.1818V29.8182C48 39.8597 39.8597 48 29.8182 48H18.1818C8.14028 48 0 39.8597 0 29.8182V18.1818Z" fill="url(#paint0_linear)"/>
<path fill-rule="evenodd" clip-rule="evenodd" d="M24 21.091C26.41 21.091 28.3636 19.1374 28.3636 16.7274C28.3636 14.3174 26.41 12.3638 24 12.3638C21.59 12.3638 19.6364 14.3174 19.6364 16.7274C19.6364 19.1374 21.59 21.091 24 21.091ZM24 35.6364C26.41 35.6364 28.3636 33.6827 28.3636 31.2727C28.3636 28.8628 26.41 26.9091 24 26.9091C21.59 26.9091 19.6364 28.8628 19.6364 31.2727C19.6364 33.6827 21.59 35.6364 24 35.6364Z" fill="white"/>
<defs>
<linearGradient id="paint0_linear" x1="51.0909" y1="-2.36364" x2="2.72727" y2="46" gradientUnits="userSpaceOnUse">
<stop stop-color="#F83600"/>
<stop offset="1" stop-color="#F9D423"/>
</linearGradient>
</defs>
</svg>
