<svg width="48" height="48" viewBox="0 0 48 48" fill="none" xmlns="http://www.w3.org/2000/svg">
<rect width="48" height="48" rx="16" fill="#F86936" fill-opacity="0.12"/>
<path d="M15 24C15 25.654 16.346 27 18 27C18.794 27 19.512 26.685 20.049 26.18L26.04 29.604C26.022 29.734 26 29.864 26 30C26 31.654 27.346 33 29 33C30.654 33 32 31.654 32 30C32 28.346 30.654 27 29 27C28.206 27 27.488 27.315 26.951 27.82L20.96 24.397C20.978 24.266 21 24.136 21 24C21 23.864 20.978 23.734 20.96 23.603L26.951 20.18C27.488 20.685 28.206 21 29 21C30.654 21 32 19.654 32 18C32 16.346 30.654 15 29 15C27.346 15 26 16.346 26 18C26 18.136 26.022 18.266 26.04 18.397L20.049 21.82C19.512 21.315 18.794 21 18 21C16.346 21 15 22.346 15 24Z" fill="#F86936"/>
</svg>
